<?xml version="1.0" encoding="utf-8"?>
<svg viewBox="440.49 291.758 405.715 155.274" xmlns="http://www.w3.org/2000/svg">
  <defs>
    <clipPath id="clipPath448" clipPathUnits="userSpaceOnUse">
      <path id="path446" d="m 3927.15,2277.99 h -340.18 v 1055.73 h 340.18 v 39.11 H 3547.87 V 2238.9 h 379.28 z"/>
    </clipPath>
    <clipPath id="clipPath474" clipPathUnits="userSpaceOnUse">
      <path id="path472" d="m 5569.38,3372.83 v -39.11 h 340.18 V 2277.99 h -340.18 v -39.09 h 379.28 v 1133.93 z"/>
    </clipPath>
  </defs>
  <g style="">
    <g id="g442" transform="matrix(0.133333, 0, 0, -0.133333, 0, 743.719971)" style="">
      <g clip-path="url(#clipPath448)" id="g444">
        <path id="path466" style="fill-opacity: 1; fill-rule: nonzero; stroke: none;" d="m 3927.15,2277.99 h -340.18 v 1055.73 h 340.18 v 39.11 H 3547.87 V 2238.9 h 379.28 v 39.09"/>
      </g>
    </g>
    <g style="">
      <path id="path76" style="fill-rule: evenodd; paint-order: fill; fill: rgb(223, 223, 223);" d="M 531.3 313.173 C 533.773 311.689 534.133 312.116 534.509 311.125 C 534.623 310.825 539.574 309.339 539.292 311.741 C 539.046 313.852 534.34 311.385 535.034 313.721 C 535.768 316.189 536.088 315.113 536.752 316.275 C 536.984 316.679 536.566 316.881 535.689 317.833 C 534.486 319.141 534.098 316.955 532.516 317.132 C 530.85 317.321 530.111 313.887 531.3 313.173 Z M 568.822 386.477 C 568.757 386.392 568.705 386.228 568.644 386.119 C 568.644 386.119 568.782 386.424 568.822 386.477 Z M 591.49 338.144 C 591.984 338.055 592.012 338.371 592.169 338.673 C 592.047 339.403 591.32 339.363 591.132 338.943 C 590.981 338.612 591.052 338.224 591.49 338.144 Z M 604.573 337.451 C 604.584 337.732 604.463 337.985 604.222 338.009 C 604.117 338.021 603.999 337.848 603.889 337.759 C 603.833 337.139 604.547 336.748 604.573 337.451 Z M 607.545 334.683 C 607.87 333.187 610.688 333.543 610.806 334.725 C 610.872 335.388 609.102 336.057 608.744 336.129 C 608.262 336.225 607.719 335.911 607.211 335.74 C 606.821 335.607 607.394 335.384 607.545 334.683 Z M 613.202 337.021 C 615.576 337.604 615.401 336.832 615.831 337.996 C 616.316 339.301 611.445 339.141 611.204 339.205 C 610.567 339.372 610.191 339.056 609.937 338.327 C 609.892 338.196 609.274 337.979 609.138 337.911 C 609.735 337.416 608.984 337.689 611.064 337.973 C 612.119 338.117 611.408 336.58 613.202 337.021 Z M 625.341 337.147 C 626.017 336.409 626.584 336.731 627.168 337.293 C 627.986 338.083 626.269 339.169 624.166 339.153 C 621.605 337.819 625.009 337.511 625.341 337.147 Z M 630.95 334.193 C 631.085 333.983 631.107 333.665 631.221 333.428 C 631.532 332.781 632.975 333.155 632.658 334.073 C 631.701 336.869 631.782 336.371 631.413 336.521 C 630.658 336.019 630.463 334.951 630.95 334.193 Z M 636.024 395.793 C 636.223 397.827 638.503 395.959 639.955 397.336 C 639.518 397.631 639.087 397.948 638.563 397.945 C 634.891 397.933 638.461 399.908 633.951 399.78 C 633.711 399.773 633.507 399.257 632.527 397.259 C 632.203 396.601 633.175 396.257 633.614 395.667 C 633.903 395.276 634.223 395.113 634.622 395.105 C 636.036 395.079 635.946 394.989 636.024 395.793 Z M 636.168 337.384 C 639.154 337.584 640.55 337.5 640.127 338.283 C 639.69 339.092 638.944 339.617 638.402 339.237 C 636.94 338.213 635.576 339.008 635.229 338.147 C 635.019 337.62 635.513 337.593 636.168 337.384 Z M 638.354 340.996 C 638.568 341.017 638.776 340.971 638.934 340.712 C 638.934 340.807 638.688 341.029 638.354 340.996 Z M 641.255 375.535 C 641.253 375.784 640.954 376.067 640.803 376.119 C 638.565 376.871 638.1 377.076 637.343 376.072 C 637.037 375.665 636.778 374.124 637.72 374.035 C 638.062 374.001 638.738 373.939 639.08 374.187 C 639.706 374.64 641.259 375.272 641.255 375.535 Z M 645.272 332.384 C 645.961 332.405 647.109 333.205 646.512 333.691 C 646.129 334.004 645.839 334.433 644.373 334.327 C 642.019 334.153 641.067 334.013 641.073 333.713 C 641.103 332.359 642.133 332.292 645.272 332.384 Z M 645.477 338.557 C 645.479 338.555 645.995 337.644 645.998 337.644 C 647.166 336.993 647.672 338.905 645.477 338.557 Z M 652.999 337.844 C 653.874 335.979 651.5 336.536 652.179 335.635 C 653.302 334.143 652.74 333.403 653.843 333.1 C 655.076 332.763 654.699 332.236 656.227 332.196 C 658.259 332.139 659.184 332.452 659.963 333.251 C 661.088 334.407 663.206 334.405 664.261 333.257 C 665.566 331.843 667.126 332.101 668.873 332.595 C 670.409 333.029 670.405 332.444 671.379 332.537 C 673.042 332.697 671.967 334.077 672.985 334.111 C 673.093 335.919 673.24 336.443 672.688 336.716 C 672.434 336.841 671.391 336.761 671.485 337.616 C 671.56 338.285 672.492 338.425 673.053 338.137 C 673.853 337.723 674.688 337.565 675.532 337.465 C 675.781 337.437 675.84 337.808 675.88 338.085 C 673.75 338.6 674.152 338.347 674.213 339.811 C 674.225 340.068 673.987 340.412 673.805 340.371 C 673.057 340.193 672.299 340.493 671.541 340.203 C 671.042 340.013 670.473 340.007 670.102 340.676 C 667.4 341.989 666.286 340.763 666.573 340.285 C 667.333 339.016 668.651 340.785 668.811 338.729 C 668.86 338.111 670.028 338.499 670.152 337.42 C 670.174 337.232 670.086 337.112 669.894 337.075 C 669.014 336.907 668.824 337.064 668.607 338.092 C 668.444 338.875 669.017 338.673 665.301 338.964 C 664.695 338.519 664.282 337.685 663.139 338.409 C 662.863 338.583 663.241 338.315 663.143 338.68 C 662.944 340.148 663.527 339.712 663.884 339.987 C 664.252 340.273 664.13 340.704 663.89 340.761 C 662.141 341.164 661.975 340.917 661.202 341.427 C 660.231 342.069 660.256 340.948 658.769 341.096 C 656.874 341.285 652.74 341.007 652.361 340.72 C 651.503 340.073 652.63 339.724 652.872 339.565 C 653.607 339.076 652.842 338.181 652.999 337.844 Z M 676.286 332.779 C 677.759 331.932 681.274 332.651 682.137 333.343 C 682.415 333.567 682.703 333.444 683.003 333.277 C 684.5 332.445 686.065 332.013 687.717 332.243 C 688.256 332.315 691.464 330.925 693.075 332.508 C 693.283 332.712 693.249 334.157 693.032 334.363 C 692.79 334.591 692.83 334.407 692.111 335.223 C 691.323 336.109 692.789 337.084 693.411 337.112 C 694.019 337.139 694.631 337.028 695.243 337.056 C 696.132 337.095 697.499 338.669 697.177 335.456 C 697.104 334.729 695.955 334.443 696.574 334.068 C 701.235 331.247 700.242 331.673 702.787 332.608 C 704.055 333.072 704.067 332.259 704.587 333.277 C 705.223 334.527 705.726 332.679 707.564 332.868 C 708.462 332.96 709.407 332.697 710.226 333.456 C 710.357 333.579 710.696 333.5 710.876 333.372 C 712.852 331.991 714.663 332.913 716.541 332.747 C 716.923 332.712 718.209 332.891 718.391 333.528 C 718.628 334.352 718.905 334.188 719.855 334.655 C 720.107 336.473 719.257 336.461 719.908 336.911 C 720.15 337.077 720.896 337.059 721.068 337.548 C 721.177 337.856 721.148 338.24 721.177 338.595 C 720.808 338.687 720.496 339.016 720.075 338.909 C 718.661 338.548 718.027 338.841 717.93 337.812 C 717.903 337.511 718.047 336.339 717.377 336.585 C 716.927 336.751 717.185 335.761 716.867 335.539 C 713.427 333.141 714.331 337.333 716.318 337.649 C 716.491 337.676 716.4 337.943 716.302 337.94 C 714.15 337.917 715.878 338.369 712.929 337.428 C 711.973 337.123 712.335 338.655 711.185 338.267 C 710.899 338.168 710.551 338.079 710.289 338.192 C 707.429 339.408 704.309 338.079 702.537 339.075 C 702.275 339.22 701.925 339.187 701.625 339.14 C 701.231 339.077 699.008 338.947 698.012 339.497 C 695.313 340.988 694.718 338.951 693.586 339.345 C 692.943 339.571 691.044 340.813 689.154 339.704 C 687.845 338.936 687.918 340.704 686.64 340.459 C 684.488 340.043 684.68 340.033 683.697 340.125 C 682.758 340.212 681.683 338.952 680.362 339.676 C 678.99 340.425 677.853 339.028 676.901 338.079 C 676.939 335.897 676.783 336.687 674.941 335.987 C 674.519 335.828 674.398 335.128 674.741 334.692 C 675.194 334.115 675.021 333.729 674.925 332.869 C 674.635 332.869 674.374 332.956 674.131 333.123 C 674.923 332.577 675.682 333.123 676.286 332.779 Z M 724.712 333.043 C 726.581 332.54 726.49 333.399 727.588 333.447 C 727.968 333.463 728.395 333.307 728.725 333.469 C 730.275 334.24 731.91 333.479 733.469 333.939 C 734.502 333.419 735.579 333.848 736.631 333.737 C 736.928 333.705 737.298 333.665 737.524 333.844 C 738.462 334.591 739.623 333.676 739.861 334.351 C 740.29 335.557 739.091 335.171 738.793 334.983 C 737.589 334.213 738.444 335.557 736.191 335.04 C 735.358 334.849 735.445 336.453 735.836 336.632 C 736.747 337.047 736.885 336.78 737.148 337.533 C 735.433 337.329 736.121 338.196 733.533 337.825 C 733.148 337.772 732.927 337.211 732.512 337.309 C 731.579 337.533 729.303 338.74 728.485 336.445 C 727.924 334.872 727.495 338.375 725.351 337.983 C 725.326 337.977 723.074 337.543 723.101 337.543 C 722.491 336.644 723.823 336.041 722.897 335.535 C 721.469 334.757 722.995 335.916 721.349 334.604 C 721.465 331.388 722.016 333.768 724.712 333.043 Z M 747.454 334.784 C 749.027 334.627 749.19 335.929 750.284 335.597 C 751.54 335.217 751.804 335.284 752.419 335.989 C 750.329 337.541 750.343 336.525 749.382 337.061 C 747.731 337.985 747.103 336.865 746.035 337.599 C 744.681 338.532 743.926 337.121 742.215 337.815 C 741.04 338.292 740.053 337.239 738.817 337.544 C 740.342 335.559 741.725 337.015 742.194 335.959 C 742.311 335.696 742.288 335.617 741.772 335.16 C 740.805 334.305 743.034 334.724 743.633 334.083 C 747 334.248 745.814 334.947 747.454 334.784 Z M 751.009 372.532 C 751.002 373.128 750.107 373.564 749.658 372.771 C 749.364 372.249 750.565 371.048 751.009 372.532 Z M 751.051 383.029 C 750.506 382.837 749.956 383.269 749.464 383.067 C 747.002 382.045 745.874 383.392 745.52 383.551 C 743.584 384.419 743.813 381.827 741.492 381.429 C 741.33 381.403 741.303 381.136 741.402 380.981 C 742.256 379.673 739.969 379.135 741.405 378.736 C 743.158 378.252 742.732 378.379 743.097 377.984 C 743.316 377.933 743.636 377.98 743.737 377.817 C 744.046 377.319 744.359 377.089 744.873 377.296 C 745.114 377.395 745.859 377.323 745.641 376.804 C 745.479 376.413 745.103 376.228 744.926 376.513 C 744.432 377.316 743.794 377.299 743.109 377.163 C 742.258 376.996 742.596 376.692 742.189 376.52 C 741.146 376.072 739.475 376.217 739.901 374.253 C 740.434 371.781 738.013 374.532 736.964 372.457 C 736.694 371.924 735.851 372.173 735.511 371.215 C 735.161 370.217 734.49 370.985 733.638 369.72 C 732.862 368.564 735.644 368.772 736.851 368.8 C 737.013 368.805 737.185 369.308 737.08 369.515 C 736.917 369.836 736.732 370.14 736.559 370.455 C 736.246 371.027 737 371.556 737.306 371.48 C 737.976 371.317 738.435 370.351 739.435 370.801 C 740.27 371.179 742.389 371.096 743.09 371.025 C 744.317 370.901 746.653 371.968 745.687 372.847 C 745.565 372.959 745.373 372.991 745.299 373.132 C 744.982 373.716 746.45 374.756 746.815 374.879 C 747.723 375.188 748.35 376.168 749.295 376.313 C 749.295 376.313 749.517 377.028 750.133 377.192 C 750.655 377.335 750.709 376.005 750.229 375.343 C 750.456 375.655 750.795 375.543 751.058 375.687 C 752.171 376.299 751.979 377.147 751.618 377.301 C 751.333 377.419 751.03 377.469 750.735 377.549 C 749.715 377.831 750.629 378.547 750.234 379.72 C 750.027 380.337 749.832 380.965 749.664 381.6 C 749.53 382.095 749.973 382.863 750.381 382.86 C 751.071 382.851 751.761 382.788 752.45 382.801 C 753.335 382.82 753.846 384.007 751.051 383.029 Z M 755.374 394.033 C 755.523 394.044 755.715 394.099 755.799 394.225 C 756.688 395.553 757.781 394.58 758.779 394.663 C 758.946 393.82 758.609 392.157 759.873 390.873 C 760.676 390.057 759.572 389.032 760.124 389.375 C 760.452 389.58 760.606 389.823 760.502 390.249 C 760.136 391.752 762.341 392.703 763.417 392.135 C 764.382 391.623 764.542 393.505 764.832 393.923 C 765.355 394.671 765.706 394.568 767.408 394.085 C 767.73 393.992 767.702 393.156 768.321 393.565 C 769.402 394.277 769.158 395.22 768.693 396.832 C 768.358 397.992 765.909 397.523 765.045 396.311 C 764.74 395.884 764.097 396.332 763.579 395.141 C 763.072 393.984 762.799 394.285 760.97 395.119 C 759.959 395.58 759.578 394.627 759.303 395.441 C 758.824 396.879 757.71 397.492 757.175 396.079 C 757.11 395.908 757.099 395.705 757.038 395.531 C 756.949 395.284 756.621 395.172 756.474 395.335 C 755.789 396.097 755.607 396.656 754.492 396.415 C 753.84 396.269 754.459 395.096 753.635 393.936 C 753.41 393.621 753.536 393.175 753.792 392.931 C 754.53 392.227 754.438 393.955 755.374 394.033 Z M 759.075 381.291 C 759.21 381.072 759.465 380.816 759.442 380.62 C 759.372 380.028 759.564 379.747 759.97 379.553 C 760.951 379.083 761.187 379.447 761.997 380.327 C 762.446 380.816 761.771 381.253 760.916 382.141 C 760.706 382.361 760.979 382.657 761.145 382.637 C 762.696 382.455 763.208 381.559 764.474 382.545 C 764.643 382.679 764.996 382.781 765.094 382.667 C 765.788 381.877 766.624 382.097 766.671 381.283 C 766.703 380.759 766.896 380.397 767.261 380.135 C 768.422 379.296 768.286 380.569 769.925 380.245 C 770.166 380.196 771.13 379.209 772.008 380.087 C 772.702 380.781 773.414 380.405 774.985 379.949 C 773.489 378.879 771.39 378.655 770.441 378.657 C 769.737 377.589 770.264 376.936 770.697 376.928 C 773.626 376.876 772.364 376.372 774.545 376.68 C 774.787 376.715 774.806 376.155 774.699 376.025 C 774.541 375.827 774.293 375.745 774.122 375.557 C 773.814 375.215 773.687 374.064 773.886 373.676 C 774.167 373.115 774.936 373.119 775.401 372.453 C 776.803 371.691 777.474 371.873 778.648 373.383 C 779.185 374.072 777.544 373.405 777.316 374.807 C 777.048 376.432 777.051 376.529 777.293 376.707 C 777.846 377.109 778.346 377.444 778.238 378.151 C 778.086 379.168 777.252 379.068 777.003 379.103 C 776.577 379.161 776.818 379.517 777.044 380.589 C 777.221 381.417 776.602 381.288 775.82 381.924 C 775.59 382.112 775.614 382.676 775.932 382.795 C 778.252 383.664 777.182 380.759 779.317 384.16 C 779.658 384.704 778.46 385.171 777.929 385.147 C 775.039 385.009 775.42 384.037 774.59 384.684 C 774.09 385.072 773.495 385.067 773.038 384.728 C 771.999 383.971 770.773 384.141 769.712 383.549 C 769.367 383.356 769.187 384.491 769.126 384.941 C 769.009 385.784 768.06 385.343 767.262 385.575 C 765.419 386.105 765.367 384.457 764.414 385.007 C 763.802 385.361 763.188 385.261 762.631 384.892 C 761.748 384.308 760.701 384.348 759.842 383.677 C 759.542 383.443 758.596 383.923 759.174 383.033 C 759.992 381.764 758.625 382.023 759.075 381.291 Z M 762.357 377.585 C 762.096 377.324 762.634 376.824 763.196 376.865 C 764.154 376.933 763.641 378.861 762.357 377.585 Z M 778.882 336.041 C 778.889 335.911 779.068 335.749 779.196 335.689 C 779.333 335.623 779.505 335.693 779.655 335.649 C 780.314 335.459 780.867 335.659 781.332 336.281 C 781.56 336.583 782.116 336.787 781.96 337.307 C 781.832 337.729 781.385 337.701 781.146 337.733 C 778.983 337.164 778.834 336.885 778.882 336.041 Z M 785.465 401.377 C 785.732 401.773 784.474 402.68 784.104 402.964 C 783.644 403.315 782.011 402.555 781.483 402.272 C 781.23 402.137 781.193 401.437 781.35 401.361 C 781.875 401.109 783.094 400.807 783.716 400.461 C 784.307 400.133 784.243 399.561 785.465 401.377 Z M 783.774 413.493 C 782.555 412.871 783.535 414.305 780.588 414.256 C 780.347 414.252 779.655 413.567 779.339 413.767 C 778.664 414.195 778.001 413.565 777.319 413.821 C 776.791 414.019 776.501 413.464 776.293 412.931 C 775.801 411.673 776.437 412.135 776.328 411.137 C 777.385 410.5 777.979 409.967 778.663 410.479 C 779.245 410.919 779.948 411.036 780.473 411.656 C 780.795 412.035 781.253 412.236 781.651 412.517 C 782.582 413.181 782.585 412.219 784.561 412.676 C 784.931 412.763 785.013 414.124 783.774 413.493 Z M 777.725 422.876 C 777.041 422.701 776.38 422.531 775.682 422.597 C 775.532 422.612 775.354 422.62 775.232 422.531 C 774.164 421.775 772.975 422.117 771.847 421.928 C 771.786 421.597 771.641 421.415 771.351 421.491 C 771.07 421.252 770.788 421.012 770.505 420.769 C 770.399 420.471 770.37 420.143 769.994 420.204 C 769.712 420.252 769.79 420.541 769.793 420.772 C 769.793 420.772 769.85 421.464 768.685 421.615 C 768.615 421.625 768.563 421.856 768.505 421.984 C 768.146 422.267 768.23 422.735 768.196 423.152 C 767.11 422.824 767.617 422.871 766.989 422.069 C 766.556 421.516 766.056 422.399 765.816 422.551 C 765.281 422.885 764.473 422.213 764.53 421.475 C 764.666 419.655 765.458 419.608 762.895 419.719 C 761.236 419.792 761.891 417.908 760.384 418.26 C 759.632 418.436 758.859 418.435 758.174 418.973 C 757.999 419.113 757.717 419.136 757.501 419.087 C 756.399 418.84 756.75 416.909 757.227 416.615 C 757.86 416.224 760.035 416.709 760.616 416.943 C 762.358 417.64 764.42 417.307 765.152 417.673 C 766.199 418.196 766.326 416.576 767.507 417.128 C 769.138 417.896 770.502 415.295 768.414 415.865 C 768.064 415.963 768.353 416.36 765.626 414.865 C 764.698 414.359 765.663 412.081 767.333 412.7 C 769.359 413.455 769.207 413.94 769.485 413.049 C 769.766 412.153 769.658 412.368 767.801 410.367 C 767.705 410.261 767.735 409.98 767.933 409.941 C 770.818 409.348 768.474 409.911 771.211 409.807 C 770.874 409.817 770.536 409.861 770.194 409.927 C 770.561 410.644 769.978 410.449 772.642 411.477 C 772.827 411.549 773.082 411.123 773.22 411.503 C 773.568 412.457 774.191 413.104 774.765 413.809 C 774.497 415.451 775.626 415.879 774.597 417.003 C 774.446 417.165 774.369 417.536 774.601 417.757 C 775.634 418.736 776.595 419.852 777.903 420.3 C 778.563 420.528 779.085 421.195 779.793 421.328 C 780.31 421.425 779.41 423.304 777.725 422.876 Z M 762.034 424.397 C 761.172 423.643 761.153 424.668 761.264 421.945 C 761.273 421.716 761.377 421.6 761.568 421.652 C 762.008 421.771 761.896 421.631 762.341 423.429 C 763.091 424.219 762.421 424.739 762.034 424.397 Z M 769.677 392.492 C 770.284 392.585 770.725 392.576 771.127 392.737 C 771.914 393.061 772.508 394.363 774.218 394.272 C 774.461 394.259 777.758 394.279 778.277 395.579 C 778.377 395.827 777.947 396.636 777.703 396.716 C 777.351 396.832 776.694 396.816 776.57 396.884 C 774.704 397.932 774.665 395.804 773.558 395.655 C 771.93 395.437 771.115 393.991 769.677 392.492 Z M 767.695 403.863 C 767.686 403.305 768.102 403.315 769.18 402.815 C 769.81 402.523 769.608 401.741 769.062 401.344 C 768.905 401.523 768.382 401.255 768.189 401.152 C 769.262 401.305 768.839 401.445 770.728 399.991 C 773.806 399.941 774.195 399.889 774.606 400.111 C 774.895 400.265 775.767 401.092 775.296 401.571 C 774.915 401.959 774.697 402.473 774.692 403.049 C 774.692 403.253 774.834 403.336 774.657 403.373 C 773.058 403.715 774.048 405.08 772.183 404.997 C 771.938 404.985 767.711 404.948 767.695 403.863 Z M 766.07 401.696 C 764.872 402.009 763.599 401.647 763.636 403.063 C 763.682 404.931 764.405 404.527 756.617 404.551 C 756.503 404.436 756.379 404.211 756.271 404.225 C 755.075 404.363 753.888 404.161 752.695 404.132 C 751.949 404.112 751.936 404.099 751.96 402.909 C 753.146 402.833 753.04 403.469 755.102 402.485 C 755.905 402.103 755.306 401.724 754.366 400.473 C 754.089 400.107 754.338 399.044 755.388 399.275 C 760.614 400.428 761.153 398 762.671 400.285 C 762.942 400.691 763.214 401.64 763.584 401.289 C 764.68 400.257 764.541 399.608 765.88 399.728 C 767.091 399.837 766.616 401.552 766.07 401.696 Z M 708.828 376.54 C 708.82 376.781 708.638 377.329 708.638 377.329 C 707.991 377.433 707.41 377.697 707.026 376.871 C 706.452 375.632 706.144 375.328 706.631 374.981 C 707.511 374.353 707.048 373.681 706.962 373.049 C 706.792 371.827 708.348 372.305 709.064 373.147 C 709.393 373.529 709.704 373.968 710.213 373.952 C 710.213 375.109 708.897 374.615 708.828 376.54 Z M 701.808 378.345 C 701.712 378.132 702.526 377.311 702.718 377.592 C 703.091 378.145 702.034 378.853 701.808 378.345 Z M 698.921 375.308 C 697.674 375.632 695.183 378.151 694.402 374.608 C 694.301 374.145 694.36 373.709 693.957 373.784 C 692.602 374.032 693.454 373.631 691.365 374.801 C 690.385 375.348 690.326 374.287 690.873 373.728 C 693.995 370.529 693.434 372.273 694.876 372.457 C 696.381 372.645 697.55 373.788 698.848 374.573 C 698.972 374.647 699.036 375.277 698.921 375.308 Z M 697.889 381.835 C 697.056 381.807 696.237 381.704 695.401 381.98 C 693.955 382.459 694.317 380.149 693.413 379.823 C 693.623 379.899 693.806 380.044 693.959 380.28 C 694.326 380.097 694.598 379.577 695.116 379.968 C 695.656 380.373 696.222 380.215 696.719 379.736 C 697.896 379.905 698.118 379.752 698.412 380.744 C 698.535 381.149 698.197 381.845 697.889 381.835 Z M 697.447 387.777 C 696.474 387.904 695.085 387.196 695.337 386.787 C 695.896 385.871 695.356 384.961 696.342 384.94 C 697.02 384.888 697.382 384.895 698.367 386.863 C 698.468 387.068 698.181 387.683 697.447 387.777 Z M 693.099 377.387 C 693.431 377.375 693.759 377.405 694.081 377.524 C 693.759 377.405 693.431 377.375 693.099 377.387 Z M 690.773 379.945 C 690.136 380.072 688.753 379.877 688.885 379.101 C 689.238 377.025 689.187 377.064 689.577 376.863 C 690.687 376.296 690.871 377.665 692.594 377.425 C 693.738 378.399 693.332 378.319 692.148 379.744 C 693.998 379.78 691.174 379.864 690.773 379.945 Z M 691.655 380.209 C 691.67 380.201 691.683 380.196 691.697 380.189 C 691.683 380.196 691.67 380.201 691.655 380.209 Z M 690.7 382.692 C 690.7 382.692 689.774 383.536 688.685 382.983 C 688.267 382.772 687.246 382.663 687.36 382.663 C 686.266 381.149 684.907 382.957 685.178 380.911 C 686.195 380.641 686.909 379.757 689.222 380.363 C 689.368 381.231 688.943 380.735 690.684 382.673 C 691.163 382.288 690.988 383.012 690.7 382.692 Z M 686.158 382.667 C 686.294 382.673 686.425 382.673 686.558 382.673 C 686.425 382.673 686.294 382.673 686.158 382.667 Z M 690.53 369.968 C 690.264 371.952 689.127 370.159 687.896 370.943 C 686.701 371.701 684.96 370.163 685.502 369.321 C 685.697 369.02 685.43 368.273 686.275 368.173 C 687.728 368.001 687.451 370.033 688.841 368.644 C 689.545 367.937 690.118 368.376 690.978 368.727 C 690.97 369.857 690.6 369.456 690.53 369.968 Z M 677.5 382.995 C 676.809 383.08 676.208 382.413 675.301 381.604 C 674.708 381.076 675.171 379.884 675.689 379.827 C 677.263 379.649 678.369 380.324 678.889 378.105 C 679.278 376.455 679.998 378.104 683.698 377.311 C 684.183 377.208 683.716 376.252 683.403 375.323 C 683.088 374.385 682.526 374.589 681.9 374.207 C 679.73 372.884 684.402 368.284 685.613 373.076 C 686.04 374.777 687.915 373.416 687.906 376.837 C 687.902 378.441 686.44 378.064 686.07 379.113 C 685.439 379.643 685.814 379.993 685.133 380.921 C 685.168 380.908 684.968 381.201 684.872 381.221 C 682.165 381.715 683.868 379.791 683.154 379.723 C 682.538 379.664 680.746 379.516 680.63 380.272 C 680.531 380.923 681.052 380.452 681.036 381.423 C 681.016 382.479 680.758 382.592 677.5 382.995 Z M 664.243 369.479 C 663.788 370.944 662.04 370.585 661.978 370.247 C 661.489 367.516 662.74 367.856 662.981 368.056 C 663.941 368.859 663.543 369.479 664.243 369.479 Z M 676.229 369.059 C 676.101 369.04 675.993 368.828 675.876 368.704 C 675.876 368.703 675.938 368.472 675.939 368.472 C 677.018 368.736 679.217 367.807 678.878 368.656 C 678.587 369.383 678.758 369.441 676.229 369.059 Z M 669.172 375.323 C 669.052 375.624 667.296 376.629 666.154 376.207 C 665.162 375.84 663.592 377.181 661.44 377.077 C 660.077 377.363 658.486 375.809 658.477 377.097 C 658.473 377.433 658.699 378.567 657.8 378.539 C 654.042 378.431 658.761 377.799 657.501 376.245 C 656.977 375.596 656.427 375.083 656.599 374.731 C 658.003 371.829 658.486 373.436 659.023 373.529 C 659.307 373.583 659.628 373.289 659.916 373.335 C 662.046 373.668 661.923 374.741 662.916 374.628 C 663.851 374.521 664.73 374.64 665.602 375.184 C 665.97 375.416 666.499 375.255 666.955 375.259 C 669.782 375.281 666.543 371.655 668.948 371.713 C 670.19 371.743 669.992 372.607 670.212 373.344 C 670.535 374.428 669.598 374.236 669.172 375.323 Z M 661.7 386.529 C 661.7 387.517 660.672 387.567 660.175 386.9 C 659.577 386.097 661.7 384.84 661.7 386.529 Z M 662.307 390.299 C 662.307 389.925 662.245 389.444 662.4 389.199 C 662.823 388.529 662.952 387.884 662.714 387.075 C 662.495 386.332 663.093 386.488 663.765 384.707 C 663.908 384.332 665.454 384.68 665.235 386.439 C 664.97 388.585 664.284 388.173 667.653 388.968 C 667.927 389.523 668.381 389.977 668.264 390.744 C 667.8 392.813 666.209 392.019 665.181 391.575 C 664.718 391.373 664.88 392.441 664.169 392.521 C 661.8 392.784 661.819 392.368 660.98 392.684 C 660.919 392.708 660.73 392.483 660.716 392.355 C 660.629 391.507 662.307 391.703 662.307 390.299 Z M 669.405 388.364 C 669.733 388.741 670.115 388.881 670.554 388.777 C 671.019 389.811 670.849 389.716 669.87 390.397 C 669.602 390.705 669.301 390.772 668.992 390.772 C 669.301 390.772 669.602 390.705 669.87 390.397 C 668.37 390.231 668.87 388.597 669.405 388.364 Z M 669.051 400.453 C 669.175 400.448 669.295 400.252 669.416 400.141 C 669.629 400.115 669.971 399.971 670.035 400.079 C 671.288 402.245 670.525 402.057 669.406 402.281 C 668.584 401.571 668.668 403.356 667.876 403.869 C 667.171 404.333 666.128 405.353 665.185 404.075 C 664.749 403.485 665.024 402.36 665.538 401.773 C 667.382 399.667 666.823 400.555 669.051 400.453 Z M 672.684 409.251 C 672.318 409.693 670.616 409.007 670.987 409.007 C 670.957 408.023 670.449 407.66 669.756 407.545 C 669.753 406.453 670.408 406.517 671.258 406.252 C 672.756 406.727 672.49 406.627 672.684 409.251 Z M 674.967 402.973 C 675.633 403.029 676.301 403.068 676.96 403.191 C 677.368 403.267 677.571 403.947 677.571 403.947 C 676.036 404.503 676.153 404.679 674.783 403.972 C 674.542 403.848 674.469 402.931 674.967 402.973 Z M 672.006 410.18 C 672.117 410.107 672.219 410.013 672.311 409.903 C 672.219 410.013 672.117 410.107 672.006 410.18 Z M 669.576 409.187 C 669.668 409.203 669.76 409.216 669.855 409.22 C 669.76 409.216 669.668 409.203 669.576 409.187 Z M 662.242 415.631 C 661.587 414.533 660.201 415.503 659.681 414.455 C 661.275 414.485 659.635 413.029 662.701 411.592 C 663.271 411.327 662.604 410.361 662.363 410.423 C 661.299 410.696 660.49 409.911 659.612 409.409 C 659.159 409.152 658.969 408.645 658.828 408.093 C 659.642 407.017 660.125 407.907 663.142 407.883 C 663.769 407.877 664.342 408.137 664.689 408.907 C 665.116 409.853 665.714 409.788 668.191 410.867 C 668.809 411.136 669.044 411.983 668.803 412.124 C 668.369 412.376 668.104 412.843 667.777 413.244 C 666.437 414.883 665.195 413.324 664.793 414.725 C 664.285 416.492 662.923 415.388 662.242 415.631 Z M 658.625 414.628 C 658.869 414.463 659.149 414.416 659.45 414.432 C 659.149 414.416 658.869 414.463 658.625 414.628 Z M 651.988 379.657 C 653.189 379.681 653.191 380.915 652.735 381.192 C 652.215 381.511 651.398 381.175 651.168 380.533 C 650.994 380.044 651.745 379.785 651.988 379.657 Z M 657.153 390.572 C 656.293 390.833 656.222 390.999 656.388 392.139 C 656.489 392.849 656.205 393.307 655.692 393.252 C 654.5 393.041 654.144 393.059 654.005 392.601 C 653.855 392.107 652.915 390.348 651.727 390.681 C 651.127 390.851 650.671 389.088 652.015 388.565 C 652.302 388.453 652.589 388.332 652.874 388.199 C 653.049 388.117 653.067 387.64 652.901 387.473 C 651.738 386.307 651.779 386.488 650.653 387.007 C 650.146 387.241 649.4 386.539 649.703 385.623 C 649.922 384.961 650.166 385.389 650.407 385.448 C 652.754 386.009 654.197 384.332 654.553 386.405 C 654.797 387.819 652.714 387.247 653.198 388.087 C 653.417 388.471 656.033 388.736 656.492 388.728 C 657.141 388.715 657.669 389.08 658.067 389.724 C 658.421 390.293 657.394 390.499 657.153 390.572 Z M 656.461 398.759 C 656.218 398.696 655.506 397.155 656.956 396.648 C 659.574 395.732 659.431 396.268 659.572 394.799 C 659.702 393.46 660.667 393.643 660.787 394.073 C 661.005 394.851 661.153 397.057 663.489 396.693 C 664.38 396.555 665.069 397.441 664.71 399.049 C 664.255 401.085 661.735 398.628 661.486 398.248 C 660.889 397.336 659.563 397.963 659.386 398.279 C 658.55 399.765 657.468 399.02 656.461 398.759 Z M 654.088 402.421 C 653.567 402.201 654.345 400.88 655.025 401.243 C 656.666 402.108 656.3 403.352 654.088 402.421 Z M 651.947 400.549 C 652.706 400.863 652.28 402.529 651.205 402.208 C 650.266 401.927 650.071 399.775 651.947 400.549 Z M 649.323 398.567 C 648.456 396.725 648.614 396.343 647.714 396.644 C 646.582 397.024 645.43 396.592 644.294 396.784 C 643.756 396.875 642.845 393.381 647.204 394.508 C 648.019 394.717 648.045 395.579 648.102 395.983 C 648.298 397.413 649.637 396.243 650.598 397.413 C 651.071 397.988 649.788 399.553 649.323 398.567 Z M 648.06 401.233 C 648.056 401.181 648.058 401.123 648.056 401.068 C 646.932 401.647 646.164 401.668 646.22 400.145 C 646.287 398.256 648.425 400.684 648.06 401.233 Z M 640.889 388.371 C 641.009 388.293 641.13 388.217 641.25 388.141 Z M 642.55 389.301 C 642.547 389.256 642.863 389.116 642.881 389.148 C 643.486 390.277 644.013 389.72 644.397 390.528 C 643.917 391.212 644.01 391.877 644.32 392.62 C 644.545 393.164 643.764 393.933 643.013 393.453 C 640.049 391.559 642.724 392.103 642.55 389.301 Z M 643.786 337.232 C 644.33 337.367 642.416 340.592 641.668 338.393 C 641.557 338.064 642.768 336.979 643.786 337.232 Z M 634.005 417.984 C 633.744 417.968 632.483 417.78 632.177 417.164 C 632.011 416.825 632.599 416.287 632.856 416.265 C 633.104 416.248 634.183 416.217 635.121 416.329 C 635.584 416.385 636.804 418.177 634.005 417.984 Z M 626.149 419.989 C 625.933 421.817 623.381 420.067 623.997 419.413 C 624.464 418.919 626.298 418.74 626.149 419.989 Z M 606.414 417.115 C 607.369 417.519 610.041 417.365 610.665 417.208 C 610.07 417.359 607.388 417.528 606.414 417.115 Z M 789.192 336.033 C 790.661 335.804 796.407 335.068 796.768 336.961 C 796.958 337.967 793.571 337.548 793.144 337.353 C 792.397 337.016 791.649 337.1 790.948 337.552 C 790.149 338.064 789.301 337.856 788.472 337.863 C 787.925 337.868 787.162 336.356 789.192 336.033 Z M 800.855 336.107 C 801.207 336.687 800.127 337.929 799.741 336.8 C 799.455 335.959 800.492 335.503 800.855 336.107 Z M 807.554 378.433 C 807.776 378.292 807.858 378.009 807.636 377.631 C 807.858 378.007 807.777 378.291 807.554 378.433 Z M 801.058 407.932 C 801.638 408.264 800.71 409.195 799.604 409.203 C 799.078 409.207 798.551 409.203 797.659 409.203 C 800.781 407.532 800.444 407.583 801.058 407.932 Z M 749.86 400.44 C 748.816 401.932 747.931 400.072 746.722 400.496 C 745.738 400.844 743.757 399.003 745.879 398.767 C 746.176 399.328 746.648 399.344 747.57 399.559 C 748.722 398.577 749.111 399.947 750.233 400.029 C 750.245 400.029 749.925 400.389 749.86 400.44 Z M 467.808 406.328 C 469.338 409.897 469.777 412.94 470.711 417.852 C 471.092 419.848 470.949 420.389 471.646 420.989 C 472.989 422.149 474.612 423.397 476.335 422.748 C 479.323 421.617 482.092 423.956 486.422 422.752 C 487.099 422.564 488.467 422.991 489.425 421.664 C 489.608 421.413 489.97 421.327 490.264 421.248 C 490.882 421.084 491.456 420.812 491.9 420.248 C 492.639 419.297 494.101 419.272 494.832 418.683 C 495.707 417.973 496.571 417.805 500.743 418.007 C 504.288 418.176 503.011 419.617 504.786 420.709 C 504.921 420.795 505.107 420.889 505.153 421.036 C 505.586 422.415 506.7 421.964 508.468 422.445 C 509.803 422.811 511.399 422.756 511.603 422.367 C 511.761 422.065 511.548 421.832 511.535 421.563 C 511.486 420.477 512.908 419.98 512.572 421.488 C 512.267 422.86 512.499 422.248 514.192 422.905 C 516.109 423.652 516.2 421.647 518.398 422.023 C 519.129 422.147 520.261 421.843 520.68 421.941 C 521.268 422.08 521.778 424.633 522.78 423.059 C 522.78 423.059 524.749 422.859 526.355 423.111 C 527.032 423.217 528.002 422.479 527.553 422.08 C 526.197 420.867 530.078 421.592 531.709 421.169 C 534.595 422.173 532.241 422.795 531.119 423.401 C 530.765 423.592 531.121 424.863 531.707 424.845 C 532.516 424.821 533.378 425.379 534.131 424.581 C 535.865 424.348 536.963 424.283 536.94 423.983 C 536.858 422.876 533.866 423.131 534.43 421.353 C 536.935 420.5 536.476 420.68 538.937 422.615 C 539.498 422.668 542.987 422.552 543.229 422.548 C 543.827 422.537 543.429 425.341 543.353 425.643 C 543.029 426.897 544.325 426.919 545.365 427.12 C 552.188 429.409 549.837 426.948 548.183 426.692 C 547.233 426.543 547.08 424.139 547.852 423.1 C 551.559 422.875 551.067 423.409 553.068 423.785 C 559.035 424.915 560.977 425.045 560.481 426.121 C 559.699 427.821 558.778 427.605 558.739 428.572 C 558.716 429.123 562.86 429.443 563.371 429.084 C 564.605 428.215 565.661 429.799 566.673 429.008 C 569.425 426.86 569.282 427.46 570.229 428.909 C 570.31 429.669 570.716 429.54 572.084 429.576 C 572.336 429.863 572.628 429.993 572.962 429.976 C 572.466 430.001 573.056 430.675 573.012 429.729 C 575.041 429.369 574.639 429.759 575.139 427.689 C 575.483 426.265 572.91 426.736 572.45 426.621 C 571.915 425.909 571.722 425.803 571.971 425.524 C 572.545 424.879 572.698 425.148 574.774 425.319 C 576.305 425.444 576.425 424.781 576.381 426.324 C 576.362 426.956 577.193 426.64 577.118 426.339 C 576.857 425.272 577.568 425.22 578.41 424.947 C 578.803 425.361 579.171 425.293 579.519 424.855 C 580.038 424.993 580.227 425.383 580.083 426.023 C 579.5 426.983 579.689 426.981 580.216 427.153 C 580.113 427.708 579.944 427.481 579.826 427.784 C 579.798 427.853 579.775 427.885 579.756 427.899 C 579.794 427.983 579.898 427.999 579.908 427.98 C 580.411 426.804 581.286 427.585 581.971 427.363 C 582.155 427.303 582.276 427.369 582.332 427.584 C 582.594 427.375 582.264 427.143 582.359 426.901 C 583.019 425.2 584.172 426.723 584.612 425.133 C 584.725 424.725 586.95 424.783 587.118 425.316 C 587.413 426.264 587.978 426.591 588.747 426.492 C 591.433 428.472 592.1 425.401 593.31 425.435 C 594.236 425.46 595.159 425.477 596.083 425.501 C 597.071 426.135 598.032 425.175 599.018 425.413 C 600.457 425.763 600.085 427.504 602.714 427.196 C 603.258 427.133 603.69 427.331 604.057 426.987 C 604.496 426.573 604.336 425.968 604.094 425.817 C 603.463 425.424 603.574 425.679 603.002 425.635 C 601.901 425.548 602.134 424.504 602.044 424.049 C 601.566 421.652 603.204 423.532 606.37 423.013 C 607.049 422.903 607.752 423.037 608.445 423.024 C 609.139 423.008 609.708 423.341 609.911 424.149 C 610.425 426.205 613.412 425.415 614.233 425.023 C 615.64 424.348 616.141 425.043 617.098 424.264 C 618.451 423.167 618.841 423.555 619.171 422.645 C 618.929 422.8 618.706 423.503 617.523 423.081 C 617.371 423.027 617.302 422.636 617.644 422.544 C 618.129 422.416 618.695 422.973 619.178 422.64 C 619.219 422.804 619.244 423.096 619.306 423.109 C 619.913 423.244 620.523 423.377 621.138 423.419 C 623.118 423.549 622.643 425.039 624.098 425.379 C 625.265 425.651 625.685 427.105 627.557 426.113 C 628.432 425.651 629.155 426.62 629.902 424.812 C 630.686 422.919 630.475 423.864 630.349 423.029 C 630.26 422.465 630.282 422.376 633.13 421.96 C 637.442 421.331 635.824 423.597 637.917 422.947 C 637.716 421.956 636.961 421.896 636.515 420.863 C 636.362 420.509 636.164 419.123 637.939 419.017 C 642.602 418.743 641.843 418.816 642.681 421.161 C 642.994 422.039 643.65 421.887 644.702 422.283 C 645.411 422.548 645.317 423.233 645.626 424.445 C 646.029 426.028 646.662 423.752 651.847 422.976 C 654.839 422.527 653.255 422.197 655.135 421.295 C 656.338 420.713 656.898 420.611 656.854 420.141 C 656.669 418.139 658.647 418.436 658.937 418.419 C 659.495 418.381 659.07 417.383 657.816 417.429 C 657.006 416.089 656.817 417.275 656.357 415.863 C 656.254 415.54 656.186 415.625 657.826 415.604 C 657.954 415.676 658.098 415.836 658.206 415.803 C 658.942 415.584 660.77 415.943 660.421 416.944 C 659.941 418.313 661.014 418.177 661.482 419.064 C 662.182 420.389 663.173 418.943 664.711 419.924 C 665.693 420.551 670.073 422.275 670.133 422.249 C 671.17 421.808 672.521 422.808 672.82 422.291 C 672.909 422.139 672.289 421.388 672.18 421.217 C 671.47 420.1 672.168 419.28 672.334 418.872 C 672.688 418 671.183 417.847 670.572 417.86 C 669.932 417.873 669.375 417.54 668.784 417.351 C 668.525 416.725 668.531 416.163 669.04 415.724 C 669.706 415.148 671.064 415.919 671.045 414.672 C 671.011 412.125 672.56 414.075 673.169 412.005 C 673.433 411.105 673.988 410.863 674.623 410.931 C 675.461 411.021 676.274 412.205 677.915 411.033 C 679.052 410.223 681.116 412.195 681.722 412.987 C 682.22 413.643 683.331 412.541 683.479 411.792 C 683.788 410.231 686.82 409.923 688.264 410.633 C 689.773 411.373 690.797 409.98 691.319 409.357 C 692.473 409.993 693.593 410.793 695.024 410.537 C 693.305 408.307 693.36 408.525 693.533 408.224 C 693.988 407.424 693.932 407.489 691.649 407.148 L 691.618 406.96 L 691.466 406.993 C 691.365 406.431 691.305 405.835 690.779 405.595 C 690.839 405.352 690.769 405.211 690.568 405.173 C 690.62 404.847 690.484 404.716 690.25 404.683 C 690.243 404.268 690.231 403.853 690.224 403.439 C 692.036 402.956 692.135 402.809 692.669 403.228 C 692.932 403.433 693.491 404.669 694.42 404.231 C 695.804 403.58 695.647 404.888 698.543 407.635 C 699.331 408.381 697.265 410.157 696.509 410.487 C 696.193 410.627 696.293 411.641 696.671 411.899 C 697.318 412.341 697.383 410.048 698.79 410.957 C 700.989 412.381 700.182 411.399 701.243 411.036 C 704.889 409.789 706.307 412.103 707.168 412.948 C 707.594 413.365 707.486 413.712 708.253 412.347 C 708.401 412.085 707.458 410.495 706.276 410.301 C 705.05 410.103 705.726 409.267 704.709 408.859 C 704.467 408.76 703.049 408.469 703.717 407.268 C 703.759 407.195 703.834 407.148 703.893 407.088 C 704.139 406.823 703.872 406.456 703.701 406.843 C 703.264 407.84 703.03 407.988 702.324 407.728 C 701.282 407.341 701.373 406.321 701.308 406.021 C 701.037 404.8 700.91 404.739 698.608 404.799 C 697.729 404.82 697.009 404.116 696.162 404.007 C 695.726 403.951 695.545 403.484 695.242 403.212 C 694.257 402.337 690.978 402.296 689.825 402.232 C 689.837 402.232 689.689 401.827 689.595 401.757 C 687.925 400.507 686.261 401.599 684.444 401.025 C 683.72 400.795 683.928 402.215 682.979 402.087 C 682.427 402.013 681.92 401.52 681.538 402.295 C 680.729 403.941 680.362 405.161 679.33 404.632 C 677.918 403.904 679.108 403.424 678.557 402.675 C 677.443 401.151 674.111 402.725 674.078 400.863 C 674.041 398.823 672.465 399.767 672.715 396.96 C 672.805 395.949 671.611 396.909 670.75 396.935 C 670.483 396.943 668.008 396.509 668.001 396.504 C 667.898 396.252 667.839 395.949 667.562 395.889 C 669.06 394.449 668.724 394.316 670.114 394.332 C 671.488 394.347 672.862 394.815 674.244 394.375 C 674.81 394.196 675.958 396.265 677.048 396.095 C 678.203 395.916 678.313 397.216 679.361 396.972 C 680.612 396.679 681.784 394.452 681.268 394.453 C 679.589 394.456 679.083 393.139 677.234 393.545 C 676.293 393.752 675.426 393.643 674.654 392.756 C 674.274 392.32 673.697 392.155 673.22 391.844 C 671.99 391.045 672.718 389.797 672.74 389.108 C 672.765 388.372 670.763 387.964 671.023 387.964 C 670.787 387.247 670.243 387.14 669.733 387 C 669.644 386.975 669.516 387.179 669.405 387.277 C 668.939 387.239 668.474 387.199 668.007 387.16 C 667.641 385.272 669.021 386.379 669.232 384.42 C 669.337 383.481 668.986 383.928 668.133 382.863 C 667.353 381.887 666.833 382.847 666.011 382.053 C 665.049 381.128 664.35 381.988 662.899 382.085 C 660.049 382.275 660.588 378.735 662.751 378.987 C 665.373 379.296 667.269 376.999 667.981 377.853 C 668.133 378.039 668.127 378.427 668.275 378.62 C 669.673 380.433 668.834 381.319 669.458 382.192 C 669.711 382.543 670.028 382.851 670.213 383.252 C 670.471 383.809 671.042 383.72 671.313 384.223 C 671.436 384.447 671.665 384.597 671.918 384.517 C 673.076 384.141 674.213 384.564 675.351 384.707 C 675.758 384.76 676.135 385.207 676.526 385.471 C 676.483 385.809 676.523 386.121 676.62 386.453 C 676.847 387.215 676.144 387.863 676.988 388.827 C 677.824 389.777 677.773 390.704 678.225 390.057 C 678.584 389.545 678.938 389.029 679.522 388.949 C 683.615 388.387 682.576 390.452 686.03 388.808 C 686.195 388.731 686.472 388.387 686.362 388.155 C 686.118 387.643 684.32 388.553 683.723 387.221 C 683.258 386.192 682.593 387.124 681.374 386.556 C 681.202 386.475 681.097 386.36 681.128 386.129 C 681.153 385.955 681.188 385.671 681.27 385.637 C 683.459 384.775 682.538 386.207 684.289 385.259 C 685.635 384.529 686.396 385.664 687.126 385.808 C 687.884 385.959 688.441 385.48 688.882 385.804 C 689.95 386.58 690.374 385.532 691.592 384.892 C 691.821 384.772 692.231 385.111 692.171 385.488 C 691.683 388.593 691.376 387.009 690.148 386.96 C 689.906 386.949 689.588 387.664 690.035 387.677 C 690.725 387.696 691.412 387.723 692.1 387.747 C 693.445 388.493 694.956 388.475 696.318 389.196 C 698.393 390.299 698.969 388.399 701.307 389.319 C 702.676 388.98 705.033 390.179 705.36 390.865 C 706.155 392.531 707.369 391.911 707.991 392.224 C 709.108 392.793 710.349 391.315 710.126 390.905 C 708.959 388.773 708.771 388.543 708.092 388.424 C 703.492 387.632 706.095 384.012 709.378 385.275 C 710.003 385.516 710.604 385.128 711.208 385.327 C 712.421 385.724 713.656 385.495 714.881 385.509 C 715.91 386.468 716.433 385.175 717.336 386.52 C 717.411 386.627 717.144 387.121 717.002 387.2 C 714.992 388.317 715.27 386.999 713.4 387.744 C 713.295 387.788 713.193 388.117 713.276 388.151 C 716.961 389.665 715.241 388.645 716.536 388.564 C 717.517 388.5 718.674 389.069 718.951 388.635 C 719.663 387.528 716.596 387.848 718.866 385.471 L 721.914 385.512 C 722.378 385.512 722.189 383.6 721.777 383.829 C 721.177 384.163 720.657 384.867 719.894 384.504 C 719.2 383.887 718.295 382.987 717.252 383.952 C 716.756 384.413 715.636 383.952 715.246 383.991 C 713.319 384.179 713.443 381.955 712.428 382.893 C 712.049 383.244 711.699 383.433 711.181 383.28 C 710.522 383.087 709.836 383.051 709.219 382.637 C 709.079 382.432 709.004 382.157 708.73 382.119 C 706.757 381.84 707.243 383.701 705.944 382.077 C 706.06 381.869 706.23 381.683 706.279 381.455 C 706.631 379.791 706.328 379.897 706.682 379.9 C 706.844 379.463 706.758 379.965 706.944 379.649 C 708.191 380.179 709.373 379.332 709.204 378.74 C 710.009 378.337 709.615 378.343 709.851 377.785 C 711.056 377.008 710.373 377.128 712.086 377.999 C 712.538 378.231 712.398 377.556 712.636 377.28 L 712.576 377.081 C 713.402 376.652 713.326 376.392 713.76 375.101 C 713.933 375.055 713.997 374.925 713.956 374.709 C 714.265 374.597 714.438 374.359 714.422 373.939 C 714.819 373.664 714.757 373.204 714.728 372.759 C 716.467 371.873 716.413 371.552 717.614 372.101 C 718.078 373.597 718.018 373.256 717.899 373.608 C 717.829 373.811 717.791 374.269 717.903 374.379 C 718.414 374.88 718.853 373.548 719.465 373.553 C 721.771 373.571 722.983 373.387 723.7 375.389 C 723.956 376.105 723.801 375.865 722.394 377.357 C 721.589 378.207 724.037 379.485 724.235 377.189 C 724.427 374.955 725.062 376.539 726.215 376.099 C 726.441 376.011 726.849 375.595 726.849 375.337 C 726.837 370.883 723.523 374.671 724.049 369.567 C 725.013 369.283 725.998 369.596 726.959 369.437 C 727.804 369.297 728.221 369.719 728.383 370.709 C 728.405 370.839 728.612 370.921 728.733 371.027 C 729.595 373.397 730.179 371.6 732.525 373.899 C 733.269 374.624 733.285 373.209 734.095 373.545 C 735.317 374.051 735.658 375.181 736.837 374.46 C 737.574 374.009 738.094 374.78 737.494 375.543 C 736.308 377.053 737.68 376.432 738.206 379.489 C 738.347 380.312 737.936 380.304 737.371 381.724 C 737.2 382.155 737.555 382.837 737.894 382.712 C 739.913 381.968 741.395 383.417 740.704 383.819 C 739.251 384.668 739.168 384.808 738.586 384.316 C 738.289 384.065 738.004 383.216 737.7 383.025 C 737.407 382.841 737.177 383.277 736.918 383.449 C 734.448 385.101 734.612 383.863 734.193 382.939 C 734.004 382.52 732.845 382.339 732.909 383.509 C 732.95 384.256 733.202 385.665 733.839 385.536 C 735.305 385.236 738.236 385.501 738.873 385.851 C 741.692 387.396 744.035 385.924 746.461 387.373 C 746.589 387.341 747.625 387.035 747.935 386.928 C 749.065 386.537 749.168 388.351 750.466 387.14 C 751.105 386.547 751.729 387.576 752.322 388.337 C 752.017 388.559 752.315 390.48 751.168 390.855 C 750.927 390.933 750.867 391.488 751.896 391.669 C 752.194 391.723 752.55 391.783 752.603 392.171 C 752.649 392.495 752.284 392.491 752.091 392.619 C 751.544 392.984 751.213 393.419 750.9 393.001 C 750.674 392.7 750.289 391.523 749.717 391.94 C 747.554 393.523 747.585 393.763 746.902 393.687 C 744.315 393.4 743.425 393.641 743.512 392.401 C 743.563 391.683 743.643 390.893 744.544 390.833 C 745.6 390.764 744.502 389.684 745.69 389.649 C 746.236 389.635 747.766 388.709 747.767 388.589 C 747.769 388.325 746.649 387.488 746.461 387.373 C 746.225 387.433 745.987 387.448 745.781 387.301 C 745.275 387.485 744.786 388.051 743.68 387.928 C 739.65 387.48 740.561 387.535 739.852 387.857 C 738.186 388.036 738.558 387.739 738.021 389.161 C 737.144 389.235 738.948 390.048 733.382 389.793 C 732.135 389.736 732.689 388.543 731.752 388.5 C 731.367 388.483 730.983 388.492 730.598 388.491 C 730.728 388.76 730.923 388.879 731.131 388.967 C 730.187 388.567 729.605 386.613 728.47 388.159 C 728.71 388.419 728.391 388.217 729.676 388.863 C 729.74 389.187 729.87 389.447 730.134 389.571 C 730.305 390.484 730.963 389.836 731.107 390.165 L 731.214 390.1 C 732.079 391.955 731.815 392.633 735.59 390.96 C 735.82 391.272 736.054 391.585 736.285 391.899 C 736.238 392.228 736.381 392.364 736.617 392.411 C 737.128 393.713 738.305 395.432 739.33 394.727 C 740.227 394.112 740.117 395.265 742.499 394.771 C 744.066 394.444 744.198 396.339 745.011 396.649 C 745.098 397.012 745.184 397.373 745.271 397.736 C 745.762 397.745 745.856 398.124 745.875 398.572 C 745.825 397.373 744.543 397.404 744.204 398.529 C 743.829 399.784 744.442 399.82 742.993 401.168 C 744.363 402.141 748.16 401.071 750.076 402.147 C 750.807 403.188 750.819 403.067 749.788 404.044 C 749.615 404.044 749.549 404.307 749.647 404.632 C 749.555 404.893 749.507 405.211 749.357 405.412 C 749.023 405.869 747.597 406.384 747.038 405.68 C 746.437 404.92 739.281 403.927 738.278 405.115 C 738.835 405.895 739.024 405.324 740.264 405.111 C 740.922 404.999 742.11 406.065 742.473 406.453 C 742.636 406.624 742.619 407.187 742.719 407.531 C 743.081 406.776 741.557 406.16 747.277 406.069 C 747.799 406.06 748.207 406.548 748.791 406.637 C 749.755 406.783 749.555 405.404 749.948 405.229 C 753.238 403.796 753.076 406.427 754.649 406.141 C 754.709 406.585 755.834 406.907 755.755 407.719 C 755.612 409.181 756.987 410.121 758.057 410.569 C 758.236 411.183 758.538 412.952 759.107 411.891 C 759.341 411.451 759.243 410.977 759.141 410.513 C 759.826 410.513 760.517 410.569 761.196 410.492 C 761.87 410.419 762.695 409.307 762.277 408.827 C 760.789 407.109 763.225 407.813 763.467 407.715 C 763.558 407.677 763.649 407.4 763.671 407.413 C 765.52 408.487 763.888 406.24 765.8 406.145 C 766.639 406.104 767.462 406.453 768.309 406.239 C 768.969 406.071 769.274 406.605 769.452 407.299 C 769.141 407.443 768.896 407.677 768.77 408.079 C 767.92 408.188 767.892 409.481 766.43 408.997 C 765.641 408.735 764.789 409.184 763.992 409.509 C 763.225 409.821 763.924 411.211 764.255 412.329 C 764.816 414.231 762.424 414.405 760.488 414.759 C 760.079 414.833 758.95 414.107 758.847 413.036 C 758.769 412.248 757.095 411.84 756.335 412.787 C 755.013 414.439 754.062 412.699 754.397 411.697 C 754.494 411.412 754.556 411.192 754.282 411.072 C 753.21 410.601 754.033 411.433 752.354 409.629 C 751.993 409.243 751.742 410.419 752.137 411.033 C 752.627 411.801 752.771 412.607 751.383 413.424 C 750.088 414.188 750.602 415.128 750.29 416.013 C 749.925 417.051 749.653 417.081 752.242 417.872 C 753.383 418.22 754.048 420.324 753.648 420.639 C 752.812 421.297 751.424 421.06 751.696 420.121 C 751.847 419.6 751.373 419.592 751.148 419.895 C 751.049 420.028 751.045 420.279 750.941 420.401 C 750.783 420.585 750.563 420.851 750.387 420.832 C 748.584 420.628 746.895 420.701 746.73 419.772 C 746.427 418.061 745.046 418.696 745.437 417.401 C 745.452 417.359 745.361 417.267 745.319 417.199 C 745.251 417.371 745.212 417.58 745.11 417.712 C 743.873 419.332 744.951 419.256 744.545 420.555 C 743.91 422.616 742.472 420.971 742.671 423.301 C 742.698 423.612 741.812 424.728 743.055 424.905 C 747.465 425.524 745.43 423.615 747.032 423.267 C 751.534 422.28 752.185 423.892 751.514 424.38 C 749.494 425.848 748.549 424.153 748.651 425.741 C 748.679 426.191 748.41 426.701 748.76 427.088 C 749.044 427.401 749.333 427.78 749.751 427.747 C 753.488 427.441 752.751 427.588 754.967 425.989 C 756.265 425.051 753.195 424.453 754.768 423.559 C 755.607 423.081 755.516 423.167 757.211 423.651 C 757.381 423.697 757.468 424.223 757.326 424.377 C 757.098 424.632 756.851 424.859 756.617 425.097 C 755.532 426.201 760.586 427.184 761.077 426.715 C 761.818 426.009 762.613 426.12 763.265 425.993 C 763.911 425.865 762.4 424.331 763.692 424.249 C 765.298 424.149 765.527 424.133 765.788 424.8 C 766.287 426.077 766.699 425.763 766.662 425.177 C 766.648 424.993 766.542 424.821 766.515 424.637 C 766.334 423.488 767.862 423.571 768.291 423.857 C 769.085 424.391 769.884 423.887 770.544 423.767 C 772.756 423.369 770.066 427.736 773.666 428.083 C 777.41 428.441 773.931 429.903 781.981 428.297 C 782.485 428.196 781.889 427.195 781.765 426.893 C 781.685 426.7 781.941 426.233 782.097 426.241 C 784.512 426.357 784.051 427.408 784.64 427.715 C 786.706 428.787 787.364 427.285 788.04 426.428 C 788.164 426.273 788.126 426.125 788.034 425.919 C 786.166 421.673 801.626 422.983 798.151 421.404 C 797.105 420.927 797.358 420.149 797.601 420.024 C 801.931 417.757 798.25 417.656 797.718 417.853 C 795.676 418.607 795.623 417.443 794.138 418.361 C 793.487 418.76 792.703 417.733 793.6 416.907 C 794.366 416.2 796.139 415.776 797.267 416.804 C 798.099 417.565 799.38 416.727 799.436 415.751 C 799.509 414.455 799.862 414.468 800.815 413.267 C 801.931 411.86 802.474 413.621 802.976 412.264 C 803.215 411.621 803.168 410.952 804.088 410.583 C 806.081 409.783 807.036 410.987 806.492 409.132 C 806.222 408.213 806.469 407.852 805.864 407.801 C 805.077 407.736 802.571 408.535 802.96 407.08 C 802.984 406.997 803.084 406.948 803.111 406.865 C 803.432 405.916 803.149 406.048 802.376 405.569 C 801.475 405.008 802.527 404.175 802.504 403.705 C 802.475 403.144 801.818 403.472 801.577 403.131 C 801.268 402.693 801.216 401.691 801.484 401.255 C 801.674 400.955 801.944 400.709 802.071 400.376 C 802.369 399.589 801.972 398.303 800.974 398.552 C 798.439 399.195 801.046 397.604 796.332 399.673 C 796.332 399.673 795.391 400.977 794.325 401.345 C 794.083 401.428 793.52 400.913 793.773 400.388 C 795.133 397.576 794.833 397.48 795.526 397.128 C 796.7 396.533 798.805 394.927 801.488 395.257 C 802.109 395.335 802.684 395.152 803.262 394.795 C 803.868 394.419 804.595 394.863 805.274 394.432 C 805.812 394.091 806.453 393.996 806.901 393.417 C 807.189 393.041 807.549 392.976 807.941 392.92 C 808.31 392.867 808.656 392.619 809.024 392.541 C 809.479 392.445 809.96 392.513 810.402 392.377 C 812.232 391.816 812.376 393.792 812.903 392.747 C 813.408 391.747 813.451 391.485 813.051 391.387 C 811.744 391.061 812.516 389.277 811.823 389.799 C 810.486 390.807 811.079 391.665 809.599 390.641 C 809.045 390.257 808.488 389.996 807.85 390.372 C 807.809 390.395 807.603 390.171 807.588 390.037 C 807.569 389.891 807.644 389.624 807.735 389.571 C 808.77 388.975 809.705 388.067 810.934 388.075 C 812.315 388.084 810.986 384.808 812.125 384.88 C 812.95 384.933 813.747 384.147 814.597 384.76 C 814.823 384.923 817.04 383.512 816.386 383.267 C 815.304 382.86 814.765 382.996 814.128 381.571 C 813.909 381.081 814.419 380.676 814.842 379.933 C 815.024 379.621 814.799 379.081 814.497 379.111 C 812.815 379.275 813.039 378.197 813.416 378.121 C 813.747 378.052 815.151 377.861 814.433 377.499 C 811.262 375.899 810.395 377.592 809.29 377.209 C 806.782 376.347 811.379 374.575 812.618 374.025 C 813.355 374.095 813.67 373.469 813.975 372.787 C 814.29 372.089 814.693 373.336 814.931 373.532 C 815.181 373.737 815.952 373.865 815.942 373.049 C 815.916 370.952 817.173 372.247 818.02 371.077 C 818.478 371.06 818.975 371.18 819.382 370.997 C 820.685 370.411 821.603 370.945 823.035 370.851 C 823.113 370.845 823.198 370.059 823.052 370.121 C 822.474 370.367 822.087 370.732 821.796 370.252 C 821.227 369.315 821.852 368.901 822.272 368.949 C 823.356 369.072 823.564 369.603 824.015 369.152 C 824.627 368.541 826.613 368.372 827.37 368.4 C 829.861 368.499 829.646 367.299 830.958 368.089 C 832.125 368.795 832.13 368.016 833.417 368.228 C 834.213 368.357 834.924 367.884 835.681 367.751 C 836.439 367.617 837.238 368.003 837.942 367.552 C 839.789 366.361 841.546 367.612 844.028 366.153 C 843.215 365.792 842.874 366.244 842.271 366.123 C 839.622 365.599 837.282 366.7 834.611 364.748 C 833.181 363.704 834.932 362.643 835.263 362.276 C 835.506 362.003 835.776 361.836 836.093 361.861 C 838.025 362.016 839.895 361.127 841.832 361.332 C 842.405 361.392 843.341 360.44 842.874 360.105 C 840.589 358.465 841.416 360.68 837.981 359.284 C 837.689 359.164 837.111 358.28 837.427 358 C 838.115 357.389 838.146 357.52 841.363 356.465 C 842.416 356.117 840.941 354.736 842.385 353.964 C 843.317 353.464 843.76 351.971 842.917 351.589 C 840.118 350.328 839.525 350.212 839.019 349.808 C 836.246 347.589 835.589 347.828 835.901 346.541 C 836.026 346.02 836.454 345.483 835.904 345.072 C 834.338 343.899 834.752 343.115 833.455 343.252 C 833.141 343.285 833.172 343.645 833.121 343.907 C 832.859 345.205 832.84 345.136 829.545 344.843 C 828.697 344.768 827.578 344.172 827.836 343.115 C 828.244 341.433 827.793 342.14 824.717 342.163 C 823.326 342.172 824.065 340.815 822.946 340.687 C 821.114 340.476 820.552 340.592 819.855 339.848 C 819.546 339.519 819.156 339.413 818.767 339.509 C 817.026 339.935 815.235 339.705 813.492 340.196 C 812.942 340.351 811.618 340.369 810.994 340.064 C 810.778 339.959 810.685 339.205 810.889 339.052 C 812.942 337.519 811.999 337.983 813.998 338.313 C 814.295 338.363 814.68 337.976 814.588 337.645 C 814.341 336.735 814.606 336.184 815.251 335.791 C 816.138 335.251 815.916 334.452 815.674 334.279 C 814.9 333.728 815.512 334.309 812.814 333.507 C 810.881 332.929 811.179 334.157 809.728 333.987 C 807.679 333.747 807.935 335.565 806.482 334.74 C 806.241 334.604 805.836 333.835 806.354 333.339 C 806.55 333.151 810.12 332.225 811.283 332.279 C 811.556 332.292 811.722 331.749 811.564 331.377 C 811.492 331.215 811.347 331.103 811.28 330.94 C 810.733 329.552 812.308 330.477 813.779 328.673 C 813.983 328.424 813.894 327.936 813.532 327.903 C 813.532 327.903 811.532 328.287 809.389 328.192 C 809.016 328.175 808.905 327.552 808.914 327.081 C 809.176 327.061 809.374 326.936 809.438 326.596 C 811.33 326.42 811.431 326.544 811.582 325.699 C 811.626 325.459 810.912 325.467 809.416 325.305 C 809.395 324.891 809.174 324.645 808.921 324.445 C 808.559 324.156 808.402 324.604 808.197 324.807 C 807.178 325.804 806.053 324.776 804.951 325.421 C 803.912 325.659 802.422 325.483 802.277 324.185 C 802.221 323.684 803.017 323.601 803.586 323.268 C 804.042 322.997 803.777 322.669 803.385 322.692 C 787.506 323.589 779.793 321.283 767.205 321.371 C 767.205 321.371 767.141 321.439 766.764 320.948 C 766.214 320.232 766.421 320.456 767.347 319.708 C 766.625 318.897 758.832 318.133 758.366 318.703 C 758.656 318.919 759.406 319.056 759.706 318.94 C 761.107 318.396 761.545 319.02 763.53 319.347 C 764.672 319.533 765.302 320.492 765.017 320.656 C 763.361 321.613 763.9 321.111 757.279 320.739 C 754.872 320.604 750.96 320.323 750.815 320.368 C 748.037 321.239 745.065 319.555 740.222 320.915 C 738.47 321.407 738.497 320.204 737.076 321.008 C 734.117 322.683 736.321 322.381 727.852 322.651 C 725.843 322.715 726.522 324.065 724.701 324.132 C 724.314 324.147 723.895 324.119 723.555 324.3 C 722.664 324.78 721.729 324.587 720.818 324.692 C 719.472 324.845 720.067 322.504 719.062 322.567 C 717.536 322.659 715.985 322.143 714.472 322.835 C 714.275 322.924 713.997 322.92 713.805 322.817 C 712.089 321.901 711.053 323.056 709.607 321.573 C 709.449 321.412 709.161 321.335 708.954 321.381 C 707.933 321.62 706.957 321.285 705.988 321.012 C 703.777 320.391 703.696 321.307 700.724 321.403 C 698.091 321.485 697.599 322.144 696.775 320.996 C 696.438 320.527 693.066 320.473 691.357 321.372 C 688.917 322.655 687.785 321.02 685.917 321.727 C 685.01 322.068 684.2 320.904 683.328 320.779 C 682.495 320.66 678.024 321.809 676.281 321.884 C 675.118 321.935 675.416 320.975 674.275 320.683 C 672.205 320.151 670.117 320.303 668.048 320.556 C 666.888 320.697 665.738 320.564 664.586 320.696 C 663.466 320.823 663.708 319.603 662.266 319.688 C 661.994 319.704 639.137 319.245 635.115 320.592 C 633.477 321.141 618.616 319.795 617.658 320.615 C 617.561 320.699 617.322 320.669 617.218 320.576 C 616.25 319.68 615.153 319.989 614.087 320.012 C 599.575 320.313 599.972 320.347 599.214 321.008 C 598.458 321.668 597.6 321.428 596.766 321.243 C 596.029 320.032 593.439 322.539 590.358 321.811 C 587.838 321.215 588.577 322.253 587.444 321.631 C 585.976 320.825 585.946 321.685 584.776 321.427 C 582.838 320.996 581.681 321.325 579.314 320.48 C 578.628 320.236 578.471 321.492 577.653 321.103 C 576.704 320.651 575.16 322.1 574.571 321.791 C 573.562 321.264 572.402 321.744 571.428 321.024 C 571.303 320.929 571.128 320.873 570.985 320.896 C 569.835 321.087 568.715 320.465 567.547 320.747 C 566.878 320.908 566.153 320.696 565.478 320.835 C 564.733 320.987 564.553 322.064 563.982 322.552 C 562.758 323.593 560.482 322.208 559.102 323.328 C 559.061 323.361 558.959 323.28 558.885 323.252 C 559.076 322.536 559.762 322.619 559.551 321.965 C 559.268 321.087 557.499 321.983 555.596 320.873 C 555.346 320.727 552.765 320.941 552.151 321.119 C 549.373 321.92 549.386 320.331 550.621 319.589 C 552.297 318.585 552.446 318.332 553.396 318.345 C 557.501 318.405 552.674 315.296 548.55 317.047 C 548.3 317.151 548.135 316.899 547.999 316.659 C 547.638 316.029 548.571 315.939 549.795 315.504 C 550.309 315.32 550.542 313.643 549.305 313.129 C 549.159 313.069 548.997 313.067 548.854 313 C 548.314 312.743 548.084 311.676 548.422 311.033 C 548.636 310.627 550.305 309.993 551.492 310.457 C 554.515 311.644 558.579 308.105 553.55 309.023 C 550.524 309.573 549.811 308.524 545.842 307.527 C 540.008 306.059 539.751 310.577 535.972 308.499 C 535.35 308.156 533.025 307.799 532.565 308.065 C 530.866 309.057 529.12 308.908 527.351 308.488 C 521.614 307.123 518.69 308.66 514.232 308.599 C 510.273 308.543 511.765 309.091 509.904 309.165 C 507.047 309.275 506.579 310.521 504.424 309.692 C 503.004 309.145 501.55 309.028 500.091 308.876 C 499.71 308.836 499.29 308.835 498.966 308.624 C 497.841 307.888 497.235 308.119 494.428 307.805 C 491.99 307.532 490.294 308.747 488.279 308.696 C 488.052 308.692 487.816 308.769 487.597 308.853 C 484.546 310.045 478.139 308.183 475.162 318.4 C 473.775 323.157 472.026 322.12 471.444 325.528 C 471.369 325.968 471.03 327.935 470.768 328.252 C 470.173 328.972 470.14 329.996 469.769 330.823 C 468.338 334.001 469.374 337.868 469.195 340.471 C 468.915 344.519 469.96 345.512 469.246 348.789 C 467.912 354.916 467.004 363.831 467.043 364.371 C 467.388 369.021 467.245 370.265 466.868 371.521 C 464.607 379.037 469.168 379.913 467.071 387.785 C 465.508 393.653 465.428 400.776 467.808 406.328"/>
      <path id="path78" style="fill-rule: evenodd; paint-order: fill; fill: rgb(223, 223, 223);" d="M 676.631 387.959 C 676.751 387.949 676.671 387.912 676.631 387.959 L 676.631 387.959"/>
      <path id="path80" style="fill-rule: evenodd; paint-order: fill; fill: rgb(223, 223, 223);" d="M 753.607 394.307 L 753.607 394.308 C 753.623 394.244 753.619 394.256 753.607 394.307"/>
      <path id="path82" style="fill-rule: evenodd; paint-order: fill; fill: rgb(223, 223, 223);" d="M 718.489 415.345 C 717.98 414.496 716.505 414.976 716.657 413.484 C 716.804 412.043 715.997 412.361 716.484 411.357 C 718.273 407.664 714.152 410.457 714.121 408.865 C 714.095 407.497 712.491 407.559 711.304 407.493 C 709.952 407.419 710.573 405.973 710.659 405.621 C 710.833 404.893 710.457 405.024 708.376 404.815 C 709.068 405.664 709.843 406.305 709.217 407.032 C 708.444 407.936 707.247 406.776 707.148 405.616 C 706.999 403.847 705.495 405.724 704.416 403.953 C 703.985 403.247 704.149 405.092 702.577 404.573 C 701.865 404.339 701.924 403.493 702.249 403.281 C 703.131 402.713 703.729 401.805 704.384 400.956 C 704.529 400.767 704.431 400.456 704.177 400.232 C 703.313 399.465 702.973 400.537 702.075 400.129 C 699.963 399.173 701.521 399.383 698.548 399.357 C 697.537 399.348 696.925 397.827 696.116 398.827 C 694.619 400.679 696.861 399.233 697.263 401.185 C 697.303 401.369 697.433 401.559 697.412 401.727 C 697.259 402.836 697.928 403.707 698.011 404.752 C 698.185 406.935 701.617 405.851 702.465 408.172 C 702.996 409.639 700.792 410.485 703.699 410.556 C 704.216 410.568 704.608 410.352 704.905 409.775 C 705.251 409.101 705.967 408.897 706.329 409.435 C 707.123 410.609 708.011 410.044 708.936 411.335 C 709.184 411.679 708.607 412.193 708.223 412.189 C 706.131 412.172 706.604 414.249 704.721 414.436 C 704.467 414.463 703.468 414.973 703.281 415.801 C 702.82 417.861 701.4 417.937 702.141 418.896 C 702.936 419.916 703.733 420.384 703.461 421.759 C 703.369 422.224 703.596 422.699 703.761 422.752 C 706.125 423.532 707.476 424.391 707.605 423.021 C 707.78 421.163 708.768 421.892 709.429 421.085 C 710.496 419.784 710.875 421.697 711.764 420.685 C 713.789 418.384 714.007 421.689 716.193 420.477 C 717.56 419.719 716.616 419.237 717.039 417.231 C 717.205 416.435 717.839 416.481 718.489 415.345"/>
      <path id="path84" style="fill-rule: evenodd; paint-order: fill; fill: rgb(223, 223, 223);" d="M 730.365 405.225 C 730.621 405.364 731.227 405.835 731.643 405.271 C 732.007 404.776 730.673 404.135 730.365 405.225"/>
      <path id="path86" style="fill-rule: evenodd; paint-order: fill; fill: rgb(223, 223, 223);" d="M 726.704 404.479 C 725.185 403.997 725.312 403.307 724.301 404.261 C 723.844 404.693 723.107 403.82 722.667 403.392 C 721.741 402.496 722.129 403.691 719.375 403.493 C 718.675 403.443 717.743 404.656 717.115 405.479 C 716.924 405.727 717.088 406.829 717.58 406.857 C 718.109 406.887 720.455 406.473 721.528 408.449 C 722.109 409.519 723.004 407.957 723.687 408.069 C 724.169 408.149 724.719 408.071 725.128 408.315 C 726.249 408.981 727.747 408.523 727.485 409.248 C 727.263 409.868 726.289 409.584 726.117 410.064 C 726.024 410.317 726.099 410.465 726.331 410.439 C 729.276 410.113 728.423 411.016 729.865 411.003 C 731.54 410.989 733.44 410.645 733.384 411.847 C 733.36 412.317 733.091 413.601 733.813 413.437 C 735.073 413.148 733.176 411.489 734.131 409.259 C 734.207 409.08 733.767 408.411 733.584 408.372 C 731.037 407.865 730.364 408.593 730.325 405.536 C 730.312 404.525 728.429 405.028 726.704 404.479"/>
      <path id="path88" style="fill-rule: evenodd; paint-order: fill; fill: rgb(223, 223, 223);" d="M 736.483 407.531 C 736.439 407.616 736.549 407.759 736.483 407.531 L 736.483 407.531"/>
      <path id="path90" style="fill-rule: evenodd; paint-order: fill; fill: rgb(223, 223, 223);" d="M 709.859 391.499 C 709.233 392.224 708.711 391.455 708.08 391.228 C 707.391 390.98 706 391.92 705.724 392.827 C 705.212 394.503 701.817 394.841 700.073 393.727 C 699.864 398.877 702.475 396.671 706.651 399.016 C 708.071 399.812 707.511 395.464 710.347 395.737 C 710.839 395.787 711.605 395.696 711.464 395.119 C 711.099 393.635 712.015 393.653 711.661 393.045 C 711.359 392.525 711.341 392.013 711.516 391.417 C 711.64 390.995 711.193 389.941 709.859 391.499"/>
      <path id="path92" style="fill-rule: evenodd; paint-order: fill; fill: rgb(223, 223, 223);" d="M 539.925 317.589 C 542.065 317.271 544.704 317.952 545.74 317.413 C 545.931 317.316 546.273 317.343 546.429 317.487 C 547.007 318.019 547.452 317.605 547.977 317.363 C 549.896 316.475 549.036 318.684 551.712 318.664 C 556.187 318.632 557.041 319.292 556.923 318.212 C 556.635 315.588 541.74 315.883 539.491 316.889 C 539.16 317.037 539.699 317.624 539.925 317.589"/>
      <path id="path94" style="fill-rule: evenodd; paint-order: fill; fill: rgb(223, 223, 223);" d="M 764.043 319.804 C 763.496 319.555 763.308 319.099 762.801 319.565 C 762.572 319.773 762.631 319.58 762.912 320.116 C 763.107 320.493 763.7 319.977 764.043 319.804"/>
      <path id="path96" style="fill-rule: evenodd; paint-order: fill; fill: rgb(223, 223, 223);" d="M 770.96 320.46 C 771.509 320.531 771.999 320.827 772.617 320.673 C 773.231 320.521 773.879 320.895 774.551 320.688 C 775.921 320.271 778.888 320.836 779.935 320.604 C 780.621 320.449 781.173 320.785 781.769 321.007 C 782.027 321.1 782.357 320.18 777.4 320.211 C 775.083 320.225 765.907 318.848 764.043 319.804 C 765.084 320.272 766.375 319.871 770.96 320.46"/>
      <path id="path98" style="fill-rule: evenodd; paint-order: fill; fill: rgb(223, 223, 223);" d="M 728.936 400.939 C 728.901 400.849 728.543 401.247 729.008 401.04 C 728.973 401.007 728.948 400.973 728.936 400.939"/>
      <path id="path100" style="fill-rule: evenodd; paint-order: fill; fill: rgb(223, 223, 223);" d="M 729.008 401.04 C 729.567 401.595 730.057 401.191 730.313 401.04 C 729.788 400.577 729.727 400.721 729.008 401.04"/>
      <path id="path102" style="fill-rule: evenodd; paint-order: fill; fill: rgb(223, 223, 223);" d="M 735.729 401.135 C 735.865 401.408 736.344 401.543 736.773 401.168 C 735.964 400.627 735.593 400.865 735.729 401.135"/>
      <path id="path104" style="fill-rule: evenodd; paint-order: fill; fill: rgb(223, 223, 223);" d="M 735.324 400.252 C 735.112 400.367 734.42 399.98 734.556 399.569 C 734.672 399.216 735.013 399.105 735.312 399.317 C 735.588 399.515 735.509 400.145 735.324 400.252 Z M 736.061 399.419 C 736.275 399.004 735.999 398.296 735.631 398.325 C 731.729 398.623 732.172 398.567 732.419 399.529 C 732.761 400.875 731.431 400.393 730.313 401.04 C 730.935 401.587 732.519 401.977 733.417 401.557 C 734.413 401.096 734.727 401.565 735.652 400.961 C 735.356 400.219 735.717 400.081 736.061 399.419"/>
      <path id="path106" style="fill-rule: evenodd; paint-order: fill; fill: rgb(223, 223, 223);" d="M 655.135 317.472 C 655.391 317.403 655.756 316.827 655.256 316.795 C 655 316.779 648.063 316.164 646.673 316.996 C 647.472 317.324 654.537 317.635 655.135 317.472"/>
      <path id="path108" style="fill-rule: evenodd; paint-order: fill; fill: rgb(223, 223, 223);" d="M 640.969 317.007 C 640.709 316.641 640.352 316.383 639.519 316.933 C 640.011 317.269 640.485 317.571 640.969 317.007"/>
      <path id="path110" style="fill-rule: evenodd; paint-order: fill; fill: rgb(223, 223, 223);" d="M 641.731 317.456 C 641.987 317.403 648.841 316.729 641.805 316.584 C 640.529 316.557 641.147 317.581 641.731 317.456"/>
      <path id="path112" style="fill-rule: evenodd; paint-order: fill; fill: rgb(223, 223, 223);" d="M 646.673 316.996 C 646.276 316.833 645.991 316.328 645.541 316.64 C 644.977 317.029 644.82 316.844 645.369 317.183 C 646.032 317.593 646.293 317.223 646.673 316.996"/>
      <path id="path114" style="fill-rule: evenodd; paint-order: fill; fill: rgb(223, 223, 223);" d="M 639.519 316.933 C 639.393 316.848 639.191 316.747 639.177 316.924 C 639.155 317.249 639.217 317.135 639.519 316.933"/>
      <path id="path116" style="fill-rule: evenodd; paint-order: fill; fill: rgb(223, 223, 223);" d="M 563.488 427.899 C 563.384 427.689 563.407 427.945 563.488 427.899 L 563.488 427.899"/>
      <path id="path118" style="fill-rule: evenodd; paint-order: fill; fill: rgb(223, 223, 223);" d="M 720.807 384.42 C 719.688 383.929 715.976 385.176 717.247 385.421 C 724.928 386.903 721.767 384.179 722.749 383.617 C 723.247 383.335 723.231 382.644 723.623 382.279 C 723.855 382.061 723.781 381.771 723.54 381.696 C 722.948 381.512 720.657 380.673 720.903 381.327 C 721.2 382.129 721.179 383.196 722.148 383.476 C 722.232 383.499 722.312 383.809 722.288 383.963 C 722.22 384.385 721.469 384.713 720.807 384.42"/>
      <path id="path120" style="fill-rule: evenodd; paint-order: fill; fill: rgb(223, 223, 223);" d="M 725.093 318.217 C 725.961 318.243 738.317 318.624 739.161 318.215 C 738.497 317.477 737.527 318.225 731.927 317.776 C 725.737 317.277 724.368 318.197 725.093 318.217"/>
      <path id="path122" style="fill-rule: evenodd; paint-order: fill; fill: rgb(223, 223, 223);" d="M 690.584 398.196 C 690.328 398.3 689.091 399.032 689.563 399.753 C 690.235 400.783 690.244 399.589 691.277 400.175 C 691.639 400.379 691.993 400.644 693.716 399.289 C 694.487 398.683 694.616 397.476 694.393 397.353 C 692.307 396.2 692.583 397.379 690.584 398.196"/>
      <path id="path124" style="fill-rule: evenodd; paint-order: fill; fill: rgb(223, 223, 223);" d="M 725 424.284 C 724.689 422.987 724.308 423.672 721.588 421.932 C 721.525 421.891 721.255 422.067 721.252 422.149 C 721.225 423.365 720.552 424.227 719.896 425.405 C 721.673 424.756 725.273 425.425 725 424.284"/>
      <path id="path126" style="fill-rule: evenodd; paint-order: fill; fill: rgb(223, 223, 223);" d="M 711.213 388.848 C 711.239 388.867 711.26 388.86 711.213 388.848 L 711.213 388.848"/>
      <path id="path128" style="fill-rule: evenodd; paint-order: fill; fill: rgb(223, 223, 223);" d="M 726.591 421.868 C 726.531 422.241 726.961 422.7 727.199 422.484 C 728.092 421.676 728.936 421.881 730.967 421.872 C 731.507 421.869 731.212 420.312 730.335 420.585 C 729.249 420.923 729.277 420.56 727.992 419.544 C 727.223 418.939 726.059 419.879 726.432 420.024 C 727.36 420.384 726.719 421.051 726.591 421.868"/>
      <path id="path130" style="fill-rule: evenodd; paint-order: fill; fill: rgb(223, 223, 223);" d="M 810.469 402.471 C 809.94 402.363 809.591 401.924 809.361 401.451 C 809.003 400.713 808.851 401.425 808.593 401.505 C 805.191 402.547 804.883 402.384 805.228 402.871 C 806.017 403.991 807.757 403.303 809.387 402.968 C 809.531 402.937 810.489 402.828 810.559 402.683 C 810.577 402.643 810.509 402.479 810.469 402.471"/>
      <path id="path132" style="fill-rule: evenodd; paint-order: fill; fill: rgb(223, 223, 223);" d="M 810.569 402.744 C 810.556 402.748 810.543 402.751 810.529 402.752 C 810.475 402.956 810.859 402.656 810.569 402.744"/>
      <path id="path134" style="fill-rule: evenodd; paint-order: fill; fill: rgb(223, 223, 223);" d="M 822.009 378.969 C 822.067 378.715 821.793 378.385 821.572 378.425 C 820.001 378.709 819.737 379.409 818.277 379.225 C 817.749 379.157 817.907 380.023 817.941 380.368 C 817.959 380.56 817.945 380.764 818 380.939 C 818.048 381.088 818.221 381.335 818.261 381.315 C 819.699 380.64 821.468 381.368 822.009 378.969"/>
      <path id="path136" style="fill-rule: evenodd; paint-order: fill; fill: rgb(223, 223, 223);" d="M 806.015 397.172 C 805.94 396.871 803.552 396.917 803.425 397.827 C 803.385 398.129 802.643 399.279 803.327 399.215 C 804.261 399.128 804.505 400.225 805.424 399.475 C 804.341 397.949 806.193 397.881 806.015 397.172"/>
      <path id="path138" style="fill-rule: evenodd; paint-order: fill; fill: rgb(223, 223, 223);" d="M 807.557 399.169 C 807.557 398.773 806.291 399.272 807.455 399.412 C 807.484 399.416 807.557 399.253 807.557 399.169"/>
      <path id="path140" style="fill-rule: evenodd; paint-order: fill; fill: rgb(223, 223, 223);" d="M 806.853 399.391 C 806.891 399.317 806.939 399.307 806.747 399.275 C 804.275 398.857 806.081 400.869 806.853 399.391"/>
      <path id="path142" style="fill-rule: evenodd; paint-order: fill; fill: rgb(223, 223, 223);" d="M 650.268 423.66 C 651.473 423.195 648.577 421.796 646.991 423.776 C 646.584 424.287 646.792 425.213 647.365 425.408 C 648.939 425.932 651.405 425.241 650.189 424.86 C 649.853 424.755 649.571 424.565 649.563 424.131 C 649.555 423.535 650.005 423.761 650.268 423.66"/>
      <path id="path144" style="fill-rule: evenodd; paint-order: fill; fill: rgb(223, 223, 223);" d="M 726.145 379.336 C 726.151 379.383 726.152 379.436 726.16 379.477 C 726.176 379.405 726.168 379.361 726.145 379.336"/>
      <path id="path146" style="fill-rule: evenodd; paint-order: fill; fill: rgb(223, 223, 223);" d="M 724.363 379.851 C 725.636 379.757 726.216 379.299 726.119 379.259 C 725.129 378.861 724.727 377.293 723.652 377.449 C 723.119 377.304 722.659 377.085 722.571 377.351 C 722.521 377.501 722.449 377.772 722.5 377.817 C 723.831 379.009 723.324 379.924 724.363 379.851"/>
      <path id="path148" style="fill-rule: evenodd; paint-order: fill; fill: rgb(223, 223, 223);" d="M 682.823 395.412 C 683.336 394.496 680.871 394.107 680.581 395.505 C 680.513 395.839 680.307 396.628 680.523 396.888 C 680.969 397.421 681.348 398.099 682.117 398.043 C 682.307 398.029 682.456 398.028 682.512 397.82 C 682.523 397.777 682.416 397.696 682.372 397.625 C 681.697 396.453 682.421 396.129 682.823 395.412"/>
      <path id="path150" style="fill-rule: evenodd; paint-order: fill; fill: rgb(223, 223, 223);" d="M 717.469 398.603 C 717.587 398.789 718.012 398.965 718.035 398.671 C 718.164 397.048 718.749 397.216 720.575 396.219 C 720.965 396.005 717.081 393.82 717.355 397.135 C 717.355 397.596 717.305 398.341 717.469 398.603"/>
      <path id="path152" style="fill-rule: evenodd; paint-order: fill; fill: rgb(223, 223, 223);" d="M 720.811 396.219 C 720.628 396.167 720.711 396.205 720.795 396.283 C 720.917 396.399 721.112 396.307 720.811 396.219"/>
      <path id="path154" style="fill-rule: evenodd; paint-order: fill; fill: rgb(223, 223, 223);" d="M 666.495 317.264 C 666.399 317.275 666.459 317.303 666.495 317.264 L 666.495 317.264"/>
      <path id="path156" style="fill-rule: evenodd; paint-order: fill; fill: rgb(223, 223, 223);" d="M 669.219 317.195 C 670.115 317.031 670.968 317.659 671.847 317.265 C 672.06 317.169 672.183 317.247 672.479 317.329 C 672.577 316.703 666.903 316.801 666.464 316.801 C 666.465 316.887 666.443 316.988 666.475 317.053 C 666.532 317.177 666.52 317.236 666.495 317.264 C 666.848 317.223 668.205 317.376 669.219 317.195"/>
      <path id="path158" style="fill-rule: evenodd; paint-order: fill; fill: rgb(223, 223, 223);" d="M 678.729 398.168 C 678.564 397.64 678.095 397.613 677.773 397.349 C 677.589 397.199 677.121 397.691 677.239 398.017 C 677.545 398.865 678.957 399.436 679.433 399.515 C 680.748 399.728 680.244 400.884 680.915 400.552 C 681.305 400.363 681.295 399.456 680.841 399.545 C 679.812 399.752 679.096 399.336 678.729 398.168"/>
      <path id="path160" style="fill-rule: evenodd; paint-order: fill; fill: rgb(223, 223, 223);" d="M 697.224 423.096 C 697.387 424.153 697.461 425.604 698.16 425.217 C 698.709 424.915 699.073 423.596 698.816 423.041 C 698.393 422.127 697.104 422.321 697.224 423.096"/>
      <path id="path162" style="fill-rule: evenodd; paint-order: fill; fill: rgb(223, 223, 223);" d="M 683.04 413.572 C 682.112 410.905 680.257 412.103 681.08 413.196 C 681.971 414.384 683.208 414.052 683.04 413.572"/>
      <path id="path164" style="fill-rule: evenodd; paint-order: fill; fill: rgb(223, 223, 223);" d="M 714.333 383.319 C 714.151 383.015 714.04 383.548 714.329 383.588 C 714.284 383.507 714.344 383.34 714.333 383.319"/>
      <path id="path166" style="fill-rule: evenodd; paint-order: fill; fill: rgb(223, 223, 223);" d="M 714.329 383.588 C 714.353 383.635 714.377 383.679 714.4 383.725 C 714.505 383.627 714.44 383.605 714.329 383.588"/>
      <path id="path168" style="fill-rule: evenodd; paint-order: fill; fill: rgb(223, 223, 223);" d="M 722.023 393.044 C 720.885 392.572 720.584 391.941 719.836 392.057 C 719.528 392.104 720.331 393.589 721.465 393.577 C 725.875 393.52 722.663 393.312 722.023 393.044"/>
      <path id="path170" style="fill-rule: evenodd; paint-order: fill; fill: rgb(223, 223, 223);" d="M 791.003 321.567 C 792.905 321.028 791.019 320.668 790.76 320.443 C 790.279 320.023 790.18 320.217 788.436 320.42 C 788.259 320.441 788.221 320.581 788.328 320.816 C 788.467 321.117 788.139 320.983 791.003 321.567"/>
      <path id="path172" style="fill-rule: evenodd; paint-order: fill; fill: rgb(223, 223, 223);" d="M 713.596 318.239 C 715.251 318.319 717.473 316.936 712.599 317.527 C 712.544 317.533 712.504 317.649 712.441 317.68 C 711.861 317.993 713.341 318.227 713.596 318.239"/>
      <path id="path174" style="fill-rule: evenodd; paint-order: fill; fill: rgb(223, 223, 223);" d="M 632.816 317.011 C 632.76 316.807 632.385 316.869 630.189 316.848 C 628.664 316.831 633.032 317.796 632.816 317.011"/>
      <path id="path176" style="fill-rule: evenodd; paint-order: fill; fill: rgb(223, 223, 223);" d="M 674.069 399.672 C 673.612 399.055 673.221 398.504 672.805 397.979 C 672.507 397.596 671.453 397.479 671.025 397.791 C 670.68 398.043 670.615 399.753 674.069 399.672"/>
      <path id="path178" style="fill-rule: evenodd; paint-order: fill; fill: rgb(223, 223, 223);" d="M 713.457 424.184 C 711.879 423.712 710.804 425.952 713.521 425.007 C 713.771 424.919 713.819 424.291 713.457 424.184"/>
      <path id="path180" style="fill-rule: evenodd; paint-order: fill; fill: rgb(223, 223, 223);" d="M 671.673 391.26 C 670.316 390.971 670.529 392.857 672.351 392.355 C 672.215 392.043 671.972 391.324 671.673 391.26"/>
      <path id="path182" style="fill-rule: evenodd; paint-order: fill; fill: rgb(223, 223, 223);" d="M 689.852 419.505 C 689.951 419.491 690.121 419.237 690.103 419.132 C 689.983 418.467 689.131 418.581 689.055 417.829 C 689.051 417.796 688.939 417.772 688.876 417.753 C 688.56 417.655 688.768 418.14 689.044 417.929 C 689.044 418.232 688.412 419.696 689.852 419.505"/>
      <path id="path184" style="fill-rule: evenodd; paint-order: fill; fill: rgb(223, 223, 223);" d="M 683.067 317.612 C 682.733 317.411 682.399 317.117 682.087 317.681 C 682.448 317.999 682.759 317.844 683.067 317.612"/>
      <path id="path186" style="fill-rule: evenodd; paint-order: fill; fill: rgb(223, 223, 223);" d="M 684.603 317.569 C 684.581 317.605 684.688 317.625 684.727 317.639 C 684.904 317.689 684.897 317.059 684.603 317.569"/>
      <path id="path188" style="fill-rule: evenodd; paint-order: fill; fill: rgb(223, 223, 223);" d="M 684.585 317.593 C 683.42 317.223 683.576 317.209 683.164 317.539 C 683.067 317.616 683.055 317.609 683.121 317.645 C 683.377 317.792 684.068 318.448 684.585 317.593"/>
      <path id="path190" style="fill-rule: evenodd; paint-order: fill; fill: rgb(223, 223, 223);" d="M 681.012 419.179 C 681.323 419.324 681.645 419.365 681.915 419.089 C 681.996 419.004 682.052 418.696 682.017 418.668 C 680.737 417.631 680.427 418.907 681.012 419.179"/>
      <path id="path192" style="fill-rule: evenodd; paint-order: fill; fill: rgb(223, 223, 223);" d="M 672.307 418.279 C 672.197 419.089 673.501 419.191 673.357 418.345 C 673.197 417.408 672.46 417.167 672.307 418.279"/>
      <path id="path194" style="fill-rule: evenodd; paint-order: fill; fill: rgb(223, 223, 223);" d="M 697.064 393.443 C 697.064 393.349 697.097 393.22 697.059 393.173 C 696.785 392.844 696.512 392.512 696.205 392.228 C 695.937 391.979 695.553 392.529 695.715 392.737 C 696.111 393.243 696.552 393.808 697.064 393.443"/>
      <path id="path196" style="fill-rule: evenodd; paint-order: fill; fill: rgb(223, 223, 223);" d="M 680.079 391.724 C 679.472 391.94 679.681 392.887 680.104 392.88 C 680.96 392.867 680.921 391.553 680.079 391.724"/>
      <path id="path198" style="fill-rule: evenodd; paint-order: fill; fill: rgb(223, 223, 223);" d="M 725.729 411.98 C 726.197 411.812 725.619 410.313 725.273 410.644 C 724.977 410.929 725.055 412.227 725.729 411.98"/>
      <path id="path200" style="fill-rule: evenodd; paint-order: fill; fill: rgb(223, 223, 223);" d="M 715.101 395.48 C 714.799 395.183 714.493 394.692 714.211 395.233 C 713.849 395.927 714.888 396.36 715.101 395.48"/>
      <path id="path202" style="fill-rule: evenodd; paint-order: fill; fill: rgb(223, 223, 223);" d="M 741.176 399.848 C 741.413 400.009 741.596 399.912 741.632 399.559 C 741.396 399.509 741.157 399.455 740.92 399.403 C 741.004 399.556 741.057 399.767 741.176 399.848"/>
      <path id="path204" style="fill-rule: evenodd; paint-order: fill; fill: rgb(223, 223, 223);" d="M 674.243 336.616 C 674.423 336.609 674.613 336.105 674.268 335.987 C 672.352 335.327 672.083 335.156 671.861 335.747 C 671.485 336.743 673.319 336.652 674.243 336.616"/>
      <path id="path206" style="fill-rule: evenodd; paint-order: fill; fill: rgb(223, 223, 223);" d="M 644.273 335.787 C 645.871 335.017 646.673 336.041 647.172 335.932 C 647.303 335.904 647.305 335.816 647.176 335.652 C 647.008 335.16 646.813 335.469 646.389 335.232 C 645.2 334.564 645.567 335.629 644.46 335.492 C 644.037 335.44 644.059 335.891 644.273 335.787"/>
      <path id="path208" style="fill-rule: evenodd; paint-order: fill; fill: rgb(223, 223, 223);" d="M 658.907 335.419 C 658.949 335.196 658.515 334.656 657.997 334.731 C 657.479 335.183 658.811 335.911 658.907 335.419"/>
      <path id="path1110" style="fill-rule: evenodd; paint-order: fill; fill: rgb(223, 223, 223);" d="M 752.647 338.943 C 752.274 338.612 752.449 338.224 753.534 338.144 C 754.758 338.055 754.828 338.371 755.215 338.673 C 754.914 339.403 753.114 339.363 752.647 338.943 Z M 624.283 311.741 C 623.674 313.852 612.022 311.385 613.739 313.721 C 615.556 316.189 616.349 315.113 617.994 316.275 C 618.568 316.679 617.532 316.881 615.363 317.833 C 612.382 319.141 611.423 316.955 607.504 317.132 C 603.38 317.321 601.549 313.887 604.493 313.173 C 610.618 311.689 611.509 312.116 612.44 311.125 C 612.722 310.825 624.982 309.339 624.283 311.741 Z M 784.713 425.809 C 783.192 425.429 783.444 425.679 782.04 425.635 C 779.313 425.548 779.892 424.504 779.668 424.049 C 778.819 422.325 780.678 422.815 784.713 423.029 L 784.713 337.939 C 784.555 337.884 784.391 337.808 784.237 337.759 C 784.181 337.52 784.408 337.317 784.713 337.196 L 784.713 320.252 C 773.892 320.401 773.927 320.563 772.661 321.008 C 770.788 321.668 768.665 321.428 766.598 321.243 C 764.774 320.032 758.36 322.539 750.732 321.811 C 744.492 321.215 746.321 322.253 743.515 321.631 C 739.881 320.825 739.806 321.685 736.909 321.427 C 732.111 320.996 729.247 321.325 723.385 320.48 C 721.687 320.236 721.297 321.492 719.273 321.103 C 716.921 320.651 713.098 322.1 711.64 321.791 C 709.142 321.264 706.268 321.744 703.856 321.024 C 703.549 320.929 703.115 320.873 702.76 320.896 C 699.912 321.087 697.141 320.465 694.249 320.747 C 692.59 320.908 690.796 320.696 689.124 320.835 C 687.279 320.987 686.833 322.064 685.42 322.552 C 682.39 323.593 676.754 322.208 673.337 323.328 C 673.234 323.361 672.982 323.28 672.798 323.252 C 673.272 322.536 674.97 322.619 674.447 321.965 C 673.747 321.087 669.367 321.983 664.655 320.873 C 664.037 320.727 657.646 320.941 656.125 321.119 C 649.246 321.92 649.279 320.331 652.337 319.589 C 656.486 318.585 656.855 318.332 659.206 318.345 C 669.371 318.405 657.419 315.296 647.207 317.047 C 646.589 317.151 646.181 316.899 645.843 316.659 C 644.949 316.029 647.261 315.939 650.291 315.504 C 651.562 315.32 652.141 313.643 649.078 313.129 C 648.716 313.069 648.315 313.067 647.961 313 C 646.624 312.743 646.055 311.676 646.89 311.033 C 647.419 310.627 651.553 309.993 654.492 310.457 C 661.977 311.644 672.042 308.105 659.589 309.023 C 652.096 309.573 650.331 308.524 640.503 307.527 C 626.055 306.059 625.421 310.577 616.063 308.499 C 614.523 308.156 608.766 307.799 607.626 308.065 C 603.42 309.057 599.095 308.908 594.715 308.488 C 580.509 307.123 573.269 308.66 562.231 308.599 C 552.427 308.543 556.122 309.091 551.513 309.165 C 544.438 309.275 543.281 310.521 537.944 309.692 C 534.429 309.145 530.827 309.028 527.214 308.876 C 526.272 308.836 525.232 308.835 524.429 308.624 C 521.644 307.888 520.142 308.119 513.193 307.805 C 507.156 307.532 502.955 308.747 497.966 308.696 C 497.404 308.692 496.821 308.769 496.277 308.853 C 488.722 310.045 472.858 308.183 465.487 318.4 C 462.051 323.157 457.722 322.12 456.28 325.528 C 456.094 325.968 455.254 327.935 454.606 328.252 C 453.134 328.972 453.052 329.996 452.133 330.823 C 448.59 334.001 451.153 337.868 450.71 340.471 C 450.017 344.519 452.604 345.512 450.838 348.789 C 447.533 354.916 445.285 363.831 445.382 364.371 C 446.236 369.021 445.882 370.265 444.949 371.521 C 439.35 379.037 450.645 379.913 445.452 387.785 C 441.58 393.653 441.384 400.776 447.277 406.328 C 451.065 409.897 452.152 412.94 454.466 417.852 C 455.408 419.848 455.053 420.389 456.779 420.989 C 460.106 422.149 464.125 423.397 468.391 422.748 C 475.79 421.617 482.646 423.956 493.368 422.752 C 495.046 422.564 498.432 422.991 500.805 421.664 C 501.257 421.413 502.153 421.327 502.881 421.248 C 504.411 421.084 505.834 420.812 506.932 420.248 C 508.764 419.297 512.381 419.272 514.191 418.683 C 516.358 417.973 518.5 417.805 528.828 418.007 C 537.608 418.176 534.445 419.617 538.84 420.709 C 539.176 420.795 539.635 420.889 539.75 421.036 C 540.82 422.415 543.58 421.964 547.958 422.445 C 551.263 422.811 555.215 422.756 555.721 422.367 C 556.113 422.065 555.583 421.832 555.553 421.563 C 555.432 420.477 558.951 419.98 558.121 421.488 C 557.365 422.86 557.939 422.248 562.131 422.905 C 566.878 423.652 567.104 421.647 572.546 422.023 C 574.356 422.147 577.16 421.843 578.198 421.941 C 579.653 422.08 580.915 424.633 583.397 423.059 C 583.397 423.059 588.272 422.859 592.249 423.111 C 593.926 423.217 596.327 422.479 595.216 422.08 C 591.857 420.867 601.468 421.592 605.508 421.169 C 612.652 422.173 606.823 422.795 604.045 423.401 C 603.168 423.592 604.05 424.863 605.501 424.845 C 607.504 424.821 609.639 425.379 611.505 424.581 C 615.797 424.348 618.516 424.283 618.46 423.983 C 618.255 422.876 610.847 423.131 612.244 421.353 C 618.446 420.5 617.31 420.68 623.406 422.615 C 624.793 422.668 633.433 422.552 634.033 422.548 C 635.512 422.537 634.527 425.341 634.338 425.643 C 633.536 426.897 636.746 426.919 639.321 427.12 C 656.216 429.409 650.394 426.948 646.3 426.692 C 643.946 426.543 643.568 424.139 645.479 423.1 C 654.658 422.875 653.44 423.409 658.394 423.785 C 673.171 424.915 677.979 425.045 676.752 426.121 C 674.813 427.821 672.534 427.605 672.436 428.572 C 672.381 429.123 682.642 429.443 683.908 429.084 C 686.962 428.215 689.576 429.799 692.084 429.008 C 698.897 426.86 698.543 427.46 700.889 428.909 C 701.09 429.669 702.095 429.54 705.482 429.576 C 706.105 429.863 706.828 429.993 707.656 429.976 C 706.427 430.001 707.889 430.675 707.78 429.729 C 712.804 429.369 711.808 429.759 713.047 427.689 C 713.898 426.265 707.528 426.736 706.387 426.621 C 705.065 425.909 704.587 425.803 705.202 425.524 C 706.623 424.879 707.003 425.148 712.144 425.319 C 715.935 425.444 716.231 424.781 716.121 426.324 C 716.075 426.956 718.132 426.64 717.948 426.339 C 717.301 425.272 719.06 425.22 721.146 424.947 C 722.118 425.361 723.03 425.293 723.893 424.855 C 725.179 424.993 725.645 425.383 725.288 426.023 C 723.844 426.983 724.313 426.981 725.619 427.153 C 725.363 427.708 724.945 427.481 724.654 427.784 C 724.584 427.853 724.525 427.885 724.479 427.899 C 724.574 427.983 724.831 427.999 724.854 427.98 C 726.1 426.804 728.267 427.585 729.963 427.363 C 730.42 427.303 730.719 427.369 730.858 427.584 C 731.507 427.375 730.691 427.143 730.924 426.901 C 732.559 425.2 735.414 426.723 736.503 425.133 C 736.783 424.725 742.293 424.783 742.708 425.316 C 743.438 426.264 744.838 426.591 746.743 426.492 C 753.394 428.472 755.045 425.401 758.042 425.435 C 760.333 425.46 762.619 425.477 764.907 425.501 C 767.354 426.135 769.733 425.175 772.176 425.413 C 775.737 425.763 774.818 427.504 781.326 427.196 C 782.675 427.133 783.743 427.331 784.653 426.987 C 784.678 426.975 784.69 426.967 784.713 426.957 L 784.713 425.809"/>
      <path id="path1114" style="fill-rule: evenodd; paint-order: fill; fill: rgb(223, 223, 223);" d="M 539.925 317.589 C 542.065 317.271 544.704 317.952 545.74 317.413 C 545.931 317.316 546.273 317.343 546.429 317.487 C 547.007 318.019 547.452 317.605 547.977 317.363 C 549.896 316.475 549.036 318.684 551.712 318.664 C 556.187 318.632 557.041 319.292 556.923 318.212 C 556.635 315.588 541.74 315.883 539.491 316.889 C 539.16 317.037 539.699 317.624 539.925 317.589"/>
      <path id="path1112" style="fill-rule: evenodd; paint-order: fill; fill: rgb(223, 223, 223);" d="M 551.881 386.477 C 551.812 386.392 551.757 386.228 551.692 386.119 C 551.692 386.119 551.839 386.424 551.881 386.477"/>
      <path id="path1116" style="fill-rule: evenodd; paint-order: fill; fill: rgb(223, 223, 223);" d="M 563.488 427.899 C 563.384 427.689 563.407 427.945 563.488 427.899 L 563.488 427.899"/>
    </g>
    <g id="g468" transform="matrix(0.133333, 0, 0, -0.133333, 0, 743.719971)" style="">
      <g clip-path="url(#clipPath474)" id="g470">
        <path id="path492" style="fill-opacity: 1; fill-rule: nonzero; stroke: none;" d="m 5569.38,3372.83 v -39.11 h 340.18 V 2277.99 h -340.18 v -39.09 h 379.28 v 1133.93 h -379.28"/>
      </g>
    </g>
  </g>
</svg>